<?xml version="1.0" encoding="utf-8"?>
<!-- Generator: Adobe Illustrator 16.0.0, SVG Export Plug-In . SVG Version: 6.00 Build 0)  -->
<!DOCTYPE svg PUBLIC "-//W3C//DTD SVG 1.1//EN" "http://www.w3.org/Graphics/SVG/1.1/DTD/svg11.dtd">
<svg version="1.1" id="Layer_1" xmlns="http://www.w3.org/2000/svg" xmlns:xlink="http://www.w3.org/1999/xlink" x="0px" y="0px"
	 width="48px" height="48px" viewBox="0 0 48 48" enable-background="new 0 0 48 48" xml:space="preserve">
<g>
	<path d="M6.413,41.181h36.246c0.52,0,0.943-0.424,0.949-0.947l0.021-4.376c0-0.525-0.424-0.945-0.947-0.945h-1.068
		c-0.525,0-0.945,0.42-0.945,0.945v1.884c0,0.263-0.211,0.475-0.475,0.475h-1.973c-0.264,0-0.475-0.212-0.475-0.475v-1.884
		c0-0.525-0.424-0.945-0.949-0.945h-1.068c-0.523,0-0.947,0.42-0.947,0.945v1.884c0,0.263-0.211,0.475-0.475,0.475h-2.014
		c-0.26,0-0.473-0.212-0.473-0.475v-1.884c0-0.525-0.424-0.945-0.947-0.945h-1.066c-0.525,0-0.949,0.42-0.949,0.945v1.884
		c0,0.263-0.213,0.475-0.473,0.475h-1.893c-0.262,0-0.475-0.212-0.475-0.475V8.01c0-0.526-0.422-0.949-0.947-0.949h-1.066
		c-0.526,0-0.948,0.422-0.948,0.949v29.731c0,0.263-0.213,0.475-0.474,0.475h-1.869c-0.26,0-0.473-0.212-0.473-0.475v-1.884
		c0-0.525-0.424-0.945-0.948-0.945h-1.066c-0.526,0-0.949,0.42-0.949,0.945v1.884c0,0.263-0.213,0.475-0.473,0.475h-1.975
		c-0.261,0-0.474-0.212-0.474-0.475v-1.884c0-0.525-0.422-0.945-0.949-0.945H12.34c-0.525,0-0.947,0.42-0.947,0.945v1.884
		c0,0.263-0.213,0.475-0.474,0.475H8.904c-0.261,0-0.474-0.212-0.474-0.475v-1.884c0-0.525-0.422-0.945-0.947-0.945H6.416
		c-0.525,0-0.947,0.42-0.947,0.945l0.004,4.374C5.464,40.757,5.891,41.181,6.413,41.181z"/>
	<path d="M7.408,26.199h6.359c0.305,0,0.553,0.248,0.553,0.553v2.977c0,0.305,0.249,0.553,0.553,0.553h2.989
		c0.305,0,0.553-0.248,0.553-0.553v-2.977c0-0.305,0.249-0.553,0.553-0.553h1.24c0.305,0,0.553-0.249,0.553-0.554v-2.537
		c0-0.303-0.248-0.552-0.553-0.552h-1.24c-0.305,0-0.553-0.25-0.553-0.553v-9.511c0-0.304-0.249-0.553-0.553-0.553H14.97
		c-0.173,0-0.339,0.083-0.441,0.221l-7.402,9.93c-0.178,0.241-0.276,0.528-0.276,0.829v2.727
		C6.854,25.953,7.103,26.199,7.408,26.199z M11.374,21.672l1.946-2.614c0.321-0.427,0.996-0.203,0.996,0.331v2.616
		c0,0.303-0.249,0.553-0.554,0.553h-1.946C11.361,22.557,11.101,22.039,11.374,21.672z"/>
	<path d="M38.072,12.066c-0.818-0.316-1.701-0.479-2.633-0.479c-0.912,0-1.791,0.163-2.611,0.479
		c-0.834,0.323-1.572,0.865-2.197,1.615c-0.617,0.738-1.109,1.727-1.463,2.935c-0.354,1.193-0.531,2.682-0.531,4.423
		c0,1.791,0.178,3.311,0.531,4.524c0.354,1.224,0.846,2.223,1.463,2.963c0.625,0.745,1.363,1.291,2.197,1.615
		c0.818,0.316,1.693,0.478,2.611,0.478c0.928,0,1.814-0.161,2.633-0.478c0.834-0.324,1.576-0.864,2.209-1.612
		c0.625-0.736,1.121-1.737,1.479-2.962c0.354-1.213,0.531-2.733,0.531-4.522c0-1.738-0.178-3.228-0.531-4.424
		c-0.355-1.209-0.852-2.196-1.479-2.938C39.648,12.931,38.906,12.385,38.072,12.066z M37.965,22.849
		c-0.029,0.687-0.135,1.358-0.305,1.995c-0.16,0.611-0.426,1.134-0.783,1.567c-0.328,0.392-0.797,0.578-1.438,0.578
		c-0.621,0-1.08-0.187-1.398-0.578c-0.354-0.434-0.615-0.956-0.779-1.572c-0.168-0.637-0.271-1.307-0.305-1.994
		c-0.031-0.698-0.051-1.312-0.051-1.812c0-0.312,0.006-0.682,0.012-1.091c0.008-0.415,0.037-0.849,0.088-1.291
		c0.049-0.436,0.129-0.874,0.238-1.3c0.115-0.412,0.264-0.787,0.455-1.11c0.184-0.308,0.422-0.556,0.703-0.747
		c0.271-0.178,0.615-0.268,1.033-0.268c0.412,0,0.768,0.09,1.045,0.272c0.293,0.19,0.537,0.442,0.729,0.752
		c0.197,0.318,0.344,0.689,0.449,1.096c0.105,0.432,0.189,0.874,0.246,1.312c0.053,0.439,0.09,0.87,0.096,1.288
		c0.012,0.438,0.014,0.794,0.014,1.089C38.016,21.529,38,22.141,37.965,22.849z"/>
</g>
</svg>
