<?xml version="1.0" standalone="no"?>
<!DOCTYPE svg PUBLIC "-//W3C//DTD SVG 20010904//EN"
 "http://www.w3.org/TR/2001/REC-SVG-20010904/DTD/svg10.dtd">
<svg version="1.0" xmlns="http://www.w3.org/2000/svg"
 width="273.000000pt" height="271.000000pt" viewBox="0 0 273.000000 271.000000"
 preserveAspectRatio="xMidYMid meet">
<metadata>
Created by potrace 1.12, written by Peter Selinger 2001-2015
</metadata>
<g transform="translate(0.000000,271.000000) scale(0.100000,-0.100000)"
fill="#000000" stroke="none">
<path d="M7 1353 l3 -1348 1355 -3 1355 -2 0 1350 0 1350 -1357 0 -1358 0 2
-1347z m581 1045 l2 -278 -280 0 -280 0 0 273 c0 151 3 277 7 280 4 4 128 6
277 5 l271 -3 3 -277z m843 278 c2 -2 3 -128 1 -280 l-3 -276 -409 0 -410 0 0
273 c0 151 3 277 7 280 7 7 807 10 814 3z m627 -278 l2 -278 -300 0 -300 0 0
273 c0 151 3 277 7 280 4 4 137 6 297 5 l291 -3 3 -277z m632 2 l0 -280 -305
0 -305 0 0 273 c0 151 3 277 7 280 3 4 141 7 305 7 l298 0 0 -280z m-2100
-720 l0 -410 -280 0 -280 0 0 410 0 410 280 0 280 0 0 -410z m840 0 l0 -410
-407 2 -408 3 -3 408 -2 407 410 0 410 0 0 -410z m630 0 l0 -410 -299 0 c-165
0 -301 3 -303 8 -2 4 -2 188 0 410 l4 402 299 0 299 0 0 -410z m630 0 l0 -410
-305 0 -305 0 0 410 0 410 305 0 305 0 0 -410z m-2102 -737 l2 -303 -280 0
-280 0 0 305 0 305 278 -2 277 -3 3 -302z m840 172 c2 -71 0 -208 -3 -302 l-7
-173 -404 0 -404 0 0 298 c0 164 3 302 7 305 4 4 187 6 407 5 l401 -3 3 -130z
m630 -172 l2 -303 -305 0 -305 0 0 298 c0 164 3 302 7 305 4 4 140 6 302 5
l296 -3 3 -302z m632 2 l0 -305 -305 0 -305 0 0 298 c0 164 3 302 7 305 3 4
141 7 305 7 l298 0 0 -305z m-2100 -625 l0 -290 -280 0 -280 0 0 290 0 290
280 0 280 0 0 -290z m830 0 l0 -290 -377 2 -378 3 368 2 367 3 -2 268 -3 267
-373 3 -373 2 3 -275 3 -275 -22 0 -23 0 0 290 0 290 405 0 405 0 0 -290z
m640 0 l0 -290 -305 0 -305 0 0 290 0 290 305 0 305 0 0 -290z m630 0 l0 -290
-305 0 -305 0 0 290 0 290 305 0 305 0 0 -290z"/>
<path d="M650 2395 l0 -215 375 0 375 0 0 215 0 215 -375 0 -375 0 0 -215z"/>
<path d="M90 1685 l0 -375 220 0 220 0 0 375 0 375 -220 0 -220 0 0 -375z"/>
<path d="M1499 2056 c-2 -2 -4 -170 -3 -373 l0 -368 272 -3 272 -2 -2 372 -3
373 -266 3 c-146 1 -267 0 -270 -2z"/>
<path d="M2127 2043 c-4 -3 -7 -174 -7 -380 l0 -373 268 2 267 3 0 375 0 375
-261 3 c-143 1 -263 -1 -267 -5z"/>
<path d="M650 940 l0 -270 375 0 375 0 0 270 0 270 -375 0 -375 0 0 -270z"/>
</g>
</svg>
