<?xml version="1.0" encoding="utf-8"?>
<!-- Generator: Adobe Illustrator 16.0.0, SVG Export Plug-In . SVG Version: 6.00 Build 0)  -->
<!DOCTYPE svg PUBLIC "-//W3C//DTD SVG 1.1//EN" "http://www.w3.org/Graphics/SVG/1.1/DTD/svg11.dtd">
<svg version="1.1" id="Layer_1" xmlns="http://www.w3.org/2000/svg" xmlns:xlink="http://www.w3.org/1999/xlink" x="0px" y="0px"
	 width="48px" height="48px" viewBox="0 0 48 48" enable-background="new 0 0 48 48" xml:space="preserve">
<circle fill="none" stroke="#000000" stroke-width="2" stroke-miterlimit="10" cx="10.306" cy="13.958" r="5.625"/>
<circle fill="none" stroke="#000000" stroke-width="2" stroke-miterlimit="10" cx="30.061" cy="13.32" r="5.625"/>
<circle fill="none" stroke="#000000" stroke-width="2" stroke-miterlimit="10" cx="36.601" cy="35.643" r="5.625"/>
<circle fill="none" stroke="#000000" stroke-width="2" stroke-miterlimit="10" cx="13.108" cy="34.861" r="5.625"/>
<g>
	<g>
		<g>
			<polygon fill="#202020" points="33.139,31.104 19.839,18.927 22.008,16.557 16.348,16.806 16.598,22.466 18.768,20.097 
				32.066,32.273 			"/>
		</g>
	</g>
</g>
<g>
	<g>
		<g>
			<polygon fill="#202020" points="10.264,19.859 10.853,24.09 10.912,24.517 7.73,24.959 12.25,28.375 15.666,23.854 
				12.483,24.297 12.424,23.871 11.835,19.641 			"/>
		</g>
	</g>
</g>
<g>
	<g>
		<g>
			<polygon fill="#202020" points="19.088,35.87 25.561,36.647 25.988,36.699 25.605,39.889 30.061,36.389 26.561,31.934 
				26.178,35.124 25.75,35.072 19.277,34.296 			"/>
		</g>
	</g>
</g>
<g>
	<g>
		<g>
			<polygon fill="#202020" points="31.84,18.646 33.696,25.099 33.815,25.513 30.728,26.401 35.686,29.144 38.428,24.186 
				35.34,25.074 35.221,24.66 33.365,18.208 			"/>
		</g>
	</g>
</g>
</svg>
