<?xml version="1.0" encoding="utf-8"?>
<!-- Generator: Adobe Illustrator 16.0.0, SVG Export Plug-In . SVG Version: 6.00 Build 0)  -->
<!DOCTYPE svg PUBLIC "-//W3C//DTD SVG 1.1//EN" "http://www.w3.org/Graphics/SVG/1.1/DTD/svg11.dtd">
<svg version="1.1" id="Layer_1" xmlns="http://www.w3.org/2000/svg" xmlns:xlink="http://www.w3.org/1999/xlink" x="0px" y="0px"
	 width="48px" height="48px" viewBox="0 0 48 48" enable-background="new 0 0 48 48" xml:space="preserve">
<path d="M41.458,6.29c-2.087,0-3.785,1.698-3.785,3.785c0,0.489,0.097,0.977,0.281,1.428l-6.216,6.216
	c-1.577-1.173-3.53-1.868-5.642-1.868c-1.687,0-3.332,0.449-4.783,1.301l-3.905-4.484c0.264-0.525,0.403-1.105,0.403-1.696
	c0-2.087-1.698-3.785-3.785-3.785c-2.087,0-3.785,1.698-3.785,3.785c0,2.087,1.698,3.785,3.785,3.785
	c0.395,0,0.781-0.06,1.152-0.179l3.861,4.434c-1.562,1.743-2.418,3.968-2.418,6.315c0,0.939,0.14,1.869,0.416,2.77l-8.504,6.051
	c-0.598-0.371-1.279-0.566-1.99-0.566c-2.087,0-3.785,1.698-3.785,3.785s1.698,3.785,3.785,3.785c2.087,0,3.785-1.698,3.785-3.785
	c0-0.279-0.031-0.557-0.091-0.827l8.11-5.771c1.045,1.484,2.503,2.648,4.177,3.332l-0.904,2.55c-1.924,0.177-3.438,1.804-3.438,3.77
	c0,2.087,1.698,3.785,3.785,3.785c2.087,0,3.785-1.698,3.785-3.785c0-1.11-0.493-2.163-1.333-2.88l0.981-2.765
	c0.237,0.019,0.471,0.028,0.698,0.028c1.213,0,2.394-0.229,3.514-0.679l4.067,4.902c-0.281,0.538-0.43,1.135-0.43,1.747
	c0,2.086,1.698,3.784,3.784,3.784c2.088,0,3.786-1.698,3.786-3.784c0-2.088-1.698-3.785-3.786-3.785
	c-0.374,0-0.741,0.055-1.097,0.163l-3.774-4.55c2.174-1.81,3.41-4.435,3.41-7.274c0-2.056-0.658-3.96-1.774-5.515l6.233-6.233
	c0.452,0.185,0.939,0.281,1.428,0.281c2.087,0,3.785-1.698,3.785-3.785S43.545,6.29,41.458,6.29z M26.097,20.217
	c2.817,0,5.109,2.292,5.109,5.109s-2.292,5.109-5.109,5.109s-5.109-2.292-5.109-5.109S23.279,20.217,26.097,20.217z"/>
</svg>
