<?xml version="1.0" standalone="no"?>
<!DOCTYPE svg PUBLIC "-//W3C//DTD SVG 20010904//EN"
 "http://www.w3.org/TR/2001/REC-SVG-20010904/DTD/svg10.dtd">
<svg version="1.0" xmlns="http://www.w3.org/2000/svg"
 width="585.000000pt" height="527.000000pt" viewBox="0 0 585.000000 527.000000"
 preserveAspectRatio="xMidYMid meet">
<metadata>
Created by potrace 1.12, written by Peter Selinger 2001-2015
</metadata>
<g transform="translate(0.000000,527.000000) scale(0.100000,-0.100000)"
fill="#000000" stroke="none">
<path d="M1103 4692 c-20 -6 22 -52 361 -394 212 -214 387 -388 389 -388 13 0
18 63 8 92 -13 41 -642 672 -684 688 -31 11 -41 11 -74 2z"/>
<path d="M2738 4693 c-10 -2 -18 -8 -18 -11 0 -17 769 -774 779 -768 14 9 14
81 0 109 -16 31 -628 645 -661 663 -26 14 -65 16 -100 7z"/>
<path d="M4440 4690 c-12 -8 64 -88 369 -394 212 -212 388 -383 393 -380 4 3
8 28 8 57 l0 51 -317 319 c-309 310 -363 356 -418 357 -11 0 -27 -5 -35 -10z"/>
<path d="M2395 4360 l-190 -190 50 -49 c28 -27 59 -52 70 -55 16 -5 55 29 194
168 173 174 174 174 162 204 -7 16 -31 48 -54 70 l-42 42 -190 -190z"/>
<path d="M4095 4360 l-190 -190 50 -49 c84 -83 73 -87 267 107 196 195 194
190 110 274 l-47 48 -190 -190z"/>
<path d="M777 4382 c-153 -153 -157 -158 -140 -177 18 -19 18 -19 -3 -2 -20
16 -22 16 -45 -9 l-24 -25 52 -50 c31 -30 61 -49 75 -49 31 0 348 315 348 347
0 12 -12 35 -26 53 -22 26 -29 29 -43 18 -13 -10 -14 -10 -4 2 10 11 9 17 -4
32 -9 10 -19 18 -22 18 -4 0 -77 -71 -164 -158z"/>
<path d="M962 4147 c-120 -120 -162 -169 -162 -186 0 -18 40 -65 153 -179 83
-84 165 -160 181 -169 l29 -15 168 168 c128 128 169 175 169 194 0 35 -315
350 -350 350 -19 0 -65 -40 -188 -163z m313 -17 c-21 -22 -33 -40 -26 -40 8 0
19 7 26 17 21 29 33 7 21 -38 -10 -40 -12 -41 -48 -37 -42 4 -44 1 -25 -27 30
-44 37 -85 22 -116 -14 -25 -14 -29 -1 -29 22 0 28 -17 15 -37 -8 -14 -26 -19
-80 -21 -44 -1 -69 2 -69 9 0 7 -21 8 -65 4 -48 -4 -65 -3 -65 6 0 7 -8 5 -20
-6 -21 -19 -21 -19 -5 11 8 16 15 41 15 56 0 15 5 30 10 33 6 3 10 16 10 27 0
22 26 58 43 58 5 0 18 11 29 25 24 31 38 32 38 2 0 -15 -10 -27 -32 -37 -42
-18 -14 -27 36 -10 50 16 98 -8 74 -38 -8 -9 -8 -16 1 -25 21 -21 31 13 15 51
-26 62 -19 81 49 144 72 66 88 75 32 18z"/>
<path d="M2602 4147 c-121 -121 -162 -168 -162 -187 0 -18 42 -66 168 -192 92
-92 174 -168 182 -168 9 0 93 78 189 174 140 140 172 177 167 193 -4 11 -77
93 -164 182 -134 137 -162 161 -187 161 -26 0 -55 -25 -193 -163z m340 -153
c25 -3 55 -12 65 -19 17 -13 16 -14 -9 -24 -14 -5 -55 -13 -90 -17 -34 -4 -72
-13 -83 -20 -25 -18 -59 -18 -74 0 -6 7 -42 16 -82 20 -117 11 -144 38 -56 55
95 19 193 20 329 5z"/>
<path d="M4302 4147 c-120 -120 -162 -168 -162 -187 0 -18 42 -66 163 -186 92
-93 173 -166 187 -169 22 -5 46 15 194 164 156 157 168 172 162 198 -5 18 -63
84 -165 186 -132 132 -162 157 -187 157 -25 0 -55 -26 -192 -163z m203 -181
c101 -29 148 -32 185 -11 36 20 38 19 36 -24 -1 -49 -27 -65 -78 -50 -18 5
-60 10 -93 10 -35 1 -76 8 -100 19 -22 10 -65 25 -95 34 -83 24 -91 32 -39 44
54 13 71 11 184 -22z"/>
<path d="M415 4001 c-14 -63 2 -90 127 -217 97 -99 126 -123 156 -129 46 -9
107 -70 116 -117 5 -25 34 -61 125 -152 79 -79 123 -116 131 -111 8 5 11 4 6
-3 -15 -24 62 -41 106 -24 14 6 -63 88 -371 396 -387 387 -389 389 -396 357z"/>
<path d="M2059 4008 c-7 -16 -9 -41 -4 -64 6 -33 49 -81 327 -360 177 -178
333 -328 348 -334 32 -13 102 -10 107 5 2 6 -170 183 -381 394 -380 380 -385
384 -397 359z"/>
<path d="M3768 4024 c-15 -27 -17 -67 -4 -96 8 -19 157 -176 343 -360 l329
-328 44 0 c25 0 50 4 57 8 8 5 -123 142 -376 396 -214 214 -391 385 -393 380z"/>
<path d="M1423 3686 c-111 -111 -163 -170 -163 -185 0 -12 19 -42 42 -67 l42
-45 183 183 c101 100 183 188 183 194 0 20 -79 84 -103 84 -15 0 -72 -50 -184
-164z"/>
<path d="M3062 3687 c-115 -115 -162 -169 -162 -185 0 -14 18 -42 43 -68 l42
-45 190 191 190 191 -42 39 c-70 66 -74 64 -261 -123z"/>
<path d="M4867 3782 c-37 -37 -65 -71 -62 -75 3 -4 2 -5 -2 -2 -4 3 -51 -38
-104 -91 -111 -111 -114 -122 -51 -186 l37 -38 190 190 190 191 -42 39 c-24
23 -52 40 -65 40 -16 0 -46 -23 -91 -68z"/>
<path d="M1932 3104 c-36 -25 -30 -77 13 -120 34 -34 45 -67 25 -79 -5 -3 -15
3 -22 15 -26 41 -51 14 -28 -31 12 -22 62 -26 77 -6 31 39 22 82 -28 129 -32
29 -34 36 -19 58 9 13 12 13 24 -2 7 -10 20 -18 29 -18 14 0 15 5 6 27 -17 45
-40 53 -77 27z"/>
<path d="M2380 2995 c0 -118 1 -125 20 -125 17 0 20 7 21 53 l1 52 15 -52 c12
-40 20 -53 34 -53 18 0 19 10 19 126 0 114 -2 125 -17 122 -14 -3 -18 -14 -19
-46 -1 -60 -10 -61 -24 -3 -9 39 -16 51 -31 51 -18 0 -19 -9 -19 -125z"/>
<path d="M3440 3100 c-17 -17 -20 -33 -20 -108 0 -102 11 -125 55 -120 44 5
57 37 52 137 -3 67 -7 86 -22 97 -26 19 -42 17 -65 -6z"/>
<path d="M3550 2996 c0 -105 2 -126 15 -126 11 0 15 14 16 58 l1 57 18 -55
c10 -33 24 -56 34 -58 14 -3 16 11 16 122 0 105 -2 126 -15 126 -12 0 -15 -13
-15 -57 0 -65 -7 -64 -24 4 -8 30 -18 49 -29 51 -15 3 -17 -10 -17 -122z"/>
<path d="M4161 3068 c-38 -184 -39 -198 -20 -198 11 0 19 9 21 23 2 14 11 23
26 25 18 3 22 -1 22 -22 0 -19 5 -26 19 -26 18 0 18 2 0 103 -26 140 -27 147
-43 147 -9 0 -18 -19 -25 -52z"/>
<path d="M4626 3104 c-12 -12 -16 -38 -16 -113 0 -106 7 -121 52 -121 39 0 48
25 48 129 0 82 -2 91 -22 105 -28 20 -43 20 -62 0z"/>
<path d="M4737 3113 c-4 -3 -7 -60 -7 -125 0 -111 1 -118 20 -118 17 0 20 7
21 53 l1 52 16 -52 c11 -39 20 -53 33 -53 18 0 19 10 19 126 0 114 -2 125 -17
122 -15 -3 -18 -13 -16 -56 2 -64 -11 -60 -27 8 -11 46 -26 61 -43 43z"/>
<path d="M950 2991 c0 -99 3 -121 15 -121 10 0 15 16 17 63 l3 62 19 -62 c11
-38 24 -63 32 -63 11 0 14 25 14 120 0 104 -2 120 -16 120 -14 0 -16 -9 -12
-50 7 -68 -4 -72 -22 -8 -10 34 -22 54 -33 56 -15 3 -17 -9 -17 -117z"/>
<path d="M1221 2997 c-25 -136 -25 -127 -6 -127 9 0 15 9 15 24 0 41 44 42 51
2 2 -11 10 -21 17 -24 16 -5 15 22 -6 138 -13 69 -22 96 -34 98 -12 2 -20 -19
-37 -111z"/>
<path d="M1103 2403 c-13 -2 -23 -7 -23 -11 0 -15 770 -776 777 -768 4 4 8 30
8 57 l0 49 -325 326 c-179 180 -339 332 -357 340 -33 14 -40 15 -80 7z"/>
<path d="M2753 2403 c-13 -2 -23 -7 -23 -11 0 -15 697 -702 705 -695 4 4 5 3
2 -3 -3 -6 9 -25 27 -43 28 -27 34 -30 40 -16 9 24 7 78 -3 93 -5 8 -152 158
-327 334 -282 283 -360 352 -391 347 -4 -1 -18 -4 -30 -6z"/>
<path d="M4437 2399 c-14 -9 38 -66 370 -399 212 -214 390 -387 393 -385 14 9
19 63 10 97 -7 24 -94 118 -328 351 -174 175 -329 325 -344 333 -31 16 -75 18
-101 3z"/>
<path d="M4095 2070 l-190 -190 50 -50 c82 -83 73 -87 266 106 123 123 169
175 169 192 0 15 -20 44 -52 78 l-53 55 -190 -191z"/>
<path d="M747 2062 l-187 -188 42 -41 c24 -23 56 -47 72 -53 29 -11 32 -9 202
161 162 162 172 174 163 198 -9 24 -86 111 -99 111 -3 0 -90 -84 -193 -188z"/>
<path d="M2390 2065 l-184 -184 23 -25 c13 -14 28 -23 34 -19 6 3 7 2 4 -4 -8
-13 31 -48 59 -55 32 -8 368 329 358 358 -11 29 -46 64 -58 57 -6 -3 -8 -2 -3
2 7 8 -29 55 -42 55 -4 0 -89 -83 -191 -185z"/>
<path d="M962 1857 c-134 -134 -162 -167 -162 -191 0 -23 27 -55 146 -176 80
-81 161 -156 180 -166 l34 -19 174 174 c165 165 173 175 165 201 -6 14 -81 97
-168 183 -117 117 -164 157 -182 157 -18 0 -65 -41 -187 -163z m271 1 c77 -27
73 -41 -4 -17 -34 11 -64 18 -66 15 -2 -2 -6 -40 -8 -84 l-3 -81 28 -6 c16 -3
34 -13 41 -21 6 -8 23 -14 38 -14 48 0 69 -10 64 -31 -7 -24 -18 -24 -51 1
-20 16 -27 18 -34 8 -12 -20 -10 -50 6 -67 8 -9 18 -28 21 -43 6 -22 4 -28
-10 -28 -11 0 -15 6 -11 18 4 11 -1 25 -12 35 -16 15 -19 14 -37 -13 -11 -17
-28 -30 -37 -30 -24 0 -23 8 3 29 21 17 21 18 5 44 -26 38 -94 48 -128 17 -9
-8 -21 -28 -27 -43 -6 -16 -15 -25 -21 -22 -6 4 -4 17 6 36 14 28 14 32 -1 49
-18 20 -13 40 10 40 8 0 17 15 20 38 4 20 9 45 12 55 4 15 1 18 -16 12 -16 -5
-21 -2 -21 12 0 20 64 58 80 48 4 -3 10 5 13 17 6 22 6 22 28 2 l21 -19 -2 30
c-3 44 -2 48 18 40 9 -4 43 -16 75 -27z"/>
<path d="M2601 1856 c-151 -153 -163 -167 -157 -193 8 -32 308 -337 341 -347
16 -5 55 29 193 167 160 160 172 175 163 198 -5 13 -81 95 -168 182 -119 117
-166 157 -184 157 -19 0 -65 -40 -188 -164z m126 -57 c15 -6 37 -19 49 -30 20
-19 21 -19 43 5 50 53 134 37 166 -31 28 -58 9 -98 -98 -210 l-93 -96 -64 67
c-37 39 -69 65 -77 61 -8 -2 -11 0 -8 5 3 5 -6 25 -20 45 -31 40 -41 100 -23
135 7 14 29 33 48 42 41 21 41 21 77 7z"/>
<path d="M4302 1857 c-120 -120 -162 -168 -162 -186 0 -18 42 -67 163 -188 89
-90 173 -167 186 -170 20 -5 47 18 192 163 128 128 169 175 169 194 0 18 -40
64 -163 187 -137 138 -167 163 -192 163 -26 0 -55 -25 -193 -163z"/>
<path d="M415 1707 c-4 -20 -4 -49 0 -64 4 -19 118 -140 334 -357 320 -321
329 -328 373 -333 102 -12 103 -13 -311 401 l-389 389 -7 -36z"/>
<path d="M3760 1715 c-27 -70 -20 -78 318 -418 174 -175 330 -325 346 -334 32
-17 86 -20 110 -6 12 7 -65 89 -374 398 l-389 389 -11 -29z"/>
<path d="M2057 1703 c-11 -58 13 -88 323 -399 168 -168 318 -317 333 -330 28
-24 76 -31 112 -18 14 6 11 12 -16 40 -27 28 -35 32 -48 21 -14 -10 -14 -10
-4 4 10 13 -13 40 -150 177 -90 90 -166 160 -170 157 -4 -3 -5 -2 -2 2 6 7
-354 373 -366 373 -4 0 -9 -12 -12 -27z"/>
<path d="M1422 1397 c-186 -186 -188 -190 -122 -260 l39 -42 191 190 191 190
-45 43 c-26 24 -54 42 -68 42 -17 0 -69 -46 -186 -163z"/>
<path d="M3066 1392 c-143 -144 -167 -173 -161 -191 6 -19 9 -20 23 -9 15 12
16 11 3 -5 -13 -16 -11 -22 20 -53 l34 -34 188 188 187 188 -37 36 c-70 68
-67 69 -257 -120z"/>
<path d="M4766 1391 c-190 -190 -188 -186 -116 -256 l40 -39 185 184 c102 102
185 190 185 196 0 20 -79 84 -103 84 -16 0 -72 -50 -191 -169z"/>
<path d="M1100 705 c0 -104 2 -125 15 -125 11 0 15 13 16 58 l1 57 17 -55 c11
-35 23 -56 34 -58 15 -3 17 9 17 116 0 96 -3 121 -15 125 -11 5 -15 -7 -17
-56 l-3 -62 -17 56 c-10 31 -25 59 -33 63 -13 5 -15 -12 -15 -119z"/>
<path d="M1363 823 c-16 -6 -18 -195 -3 -224 12 -22 62 -26 78 -6 6 7 12 61
14 120 3 96 1 107 -14 107 -16 0 -18 -11 -18 -99 0 -92 -9 -125 -28 -106 -4 4
-9 53 -12 109 -4 76 -8 102 -17 99z"/>
<path d="M1480 703 c0 -103 2 -123 15 -123 11 0 15 12 15 50 0 63 16 65 31 4
10 -40 31 -65 44 -52 2 2 -2 26 -10 52 -10 33 -12 54 -5 66 14 26 12 96 -2
108 -7 5 -30 12 -50 14 l-38 4 0 -123z"/>
<path d="M4130 705 c0 -118 1 -125 20 -125 17 0 20 7 20 50 0 38 4 50 15 50
11 0 15 -12 15 -50 0 -43 3 -50 20 -50 19 0 20 7 20 126 0 114 -2 125 -17 122
-14 -2 -19 -15 -21 -56 -2 -37 -7 -52 -18 -52 -10 0 -14 14 -14 55 0 48 -2 55
-20 55 -19 0 -20 -7 -20 -125z"/>
<path d="M4282 814 c-20 -14 -22 -23 -22 -108 0 -106 10 -130 55 -124 42 4 54
36 52 136 -2 70 -5 86 -21 98 -25 18 -36 18 -64 -2z"/>
<path d="M4390 705 c0 -104 2 -125 15 -125 11 0 15 12 15 50 0 28 4 50 9 50 5
0 15 -22 22 -50 9 -37 18 -50 31 -50 22 0 22 2 3 62 -8 29 -10 50 -4 53 5 4 9
28 9 55 0 55 -22 80 -72 80 l-28 0 0 -125z"/>
<path d="M4517 822 c-2 -4 -5 -60 -6 -124 -2 -113 -2 -118 18 -118 18 0 21 6
21 50 0 28 4 50 8 50 5 0 14 -22 21 -50 10 -37 18 -50 31 -50 17 0 17 3 5 52
-9 34 -11 57 -5 69 14 26 12 82 -3 103 -13 18 -83 31 -90 18z"/>
<path d="M4660 810 c-17 -17 -20 -33 -20 -106 0 -105 9 -124 56 -124 44 0 54
23 54 131 0 66 -3 82 -20 99 -11 11 -27 20 -35 20 -8 0 -24 -9 -35 -20z"/>
<path d="M4770 705 c0 -104 2 -125 15 -125 11 0 15 12 15 50 0 63 16 65 31 4
11 -41 31 -65 45 -51 3 2 0 24 -6 48 -8 30 -8 58 -1 88 10 45 1 89 -22 103 -7
4 -27 8 -44 8 l-33 0 0 -125z"/>
<path d="M733 785 c-19 -29 -23 -49 -23 -120 l0 -85 39 0 c57 0 71 25 70 120
0 41 -4 84 -8 94 -13 34 -24 -1 -22 -69 2 -75 -6 -115 -25 -115 -21 0 -20 176
1 184 18 7 20 26 3 26 -7 0 -23 -16 -35 -35z"/>
<path d="M2232 808 c-8 -8 -12 -47 -12 -108 0 -101 7 -120 46 -120 33 0 46 24
52 99 6 92 -10 141 -47 141 -15 0 -32 -5 -39 -12z"/>
<path d="M2832 808 c-18 -18 -17 -202 2 -218 22 -18 59 -8 73 20 16 32 16 148
0 180 -14 28 -55 38 -75 18z"/>
<path d="M2940 700 c0 -98 3 -120 15 -120 11 0 15 17 17 68 3 66 6 67 29 7
l12 -30 11 37 c18 60 26 55 26 -15 0 -53 3 -67 15 -67 13 0 15 20 15 121 0
108 -2 120 -17 117 -10 -2 -23 -22 -32 -51 -8 -26 -17 -47 -21 -47 -3 0 -12
23 -19 50 -10 38 -17 50 -32 50 -18 0 -19 -9 -19 -120z"/>
</g>
</svg>
