<?xml version="1.0" standalone="no"?>
<!DOCTYPE svg PUBLIC "-//W3C//DTD SVG 20010904//EN"
 "http://www.w3.org/TR/2001/REC-SVG-20010904/DTD/svg10.dtd">
<svg version="1.0" xmlns="http://www.w3.org/2000/svg"
 width="128.000000pt" height="128.000000pt" viewBox="0 0 128.000000 128.000000"
 preserveAspectRatio="xMidYMid meet">
<metadata>
Created by potrace 1.12, written by Peter Selinger 2001-2015
</metadata>
<g transform="translate(0.000000,128.000000) scale(0.100000,-0.100000)"
fill="#000000" stroke="none">
<path d="M113 931 c-48 -12 -78 -35 -97 -74 -13 -29 -16 -70 -16 -242 0 -231
6 -259 65 -295 31 -19 48 -20 575 -20 527 0 544 1 575 20 59 37 65 63 65 297
0 234 -6 260 -71 298 -33 19 -54 20 -549 22 -283 1 -530 -2 -547 -6z m177
-306 l0 -175 -45 0 -45 0 0 175 0 175 45 0 45 0 0 -175z m161 98 c10 -61 14
-72 20 -53 4 14 7 42 8 62 2 63 7 68 72 68 l59 0 0 -175 0 -175 -40 0 -40 0
-1 83 -1 82 -16 -82 c-14 -80 -16 -83 -42 -83 -26 0 -28 3 -42 83 l-15 82 -2
-82 -1 -83 -40 0 -40 0 0 175 0 175 54 0 55 0 12 -77z m389 57 c18 -18 20 -33
20 -146 0 -69 -5 -134 -10 -144 -13 -24 -69 -40 -142 -40 l-58 0 0 175 0 175
85 0 c72 0 88 -3 105 -20z m130 -16 c0 -29 3 -35 16 -30 46 18 63 17 83 -3 19
-19 21 -33 21 -134 0 -101 -2 -116 -20 -132 -18 -16 -25 -17 -62 -6 -30 10
-43 10 -46 2 -2 -6 -19 -11 -38 -11 l-34 0 0 175 0 175 40 0 c39 0 40 -1 40
-36z"/>
</g>
</svg>
