<?xml version="1.0" encoding="utf-8"?>
<!-- Generator: Adobe Illustrator 16.0.0, SVG Export Plug-In . SVG Version: 6.00 Build 0)  -->
<!DOCTYPE svg PUBLIC "-//W3C//DTD SVG 1.1//EN" "http://www.w3.org/Graphics/SVG/1.1/DTD/svg11.dtd">
<svg version="1.1" id="Layer_1" xmlns="http://www.w3.org/2000/svg" xmlns:xlink="http://www.w3.org/1999/xlink" x="0px" y="0px"
	 width="48px" height="48px" viewBox="40 40 48 48" enable-background="new 40 40 48 48" xml:space="preserve">
<g transform="translate(0.000000,128.000000) scale(0.100000,-0.100000)">
	<path d="M468.608,746.382c-15.605-3.906-25.361-11.382-31.538-24.058c-4.233-9.429-5.205-22.769-5.205-78.696
		c0-75.122,1.948-84.243,21.138-95.942c10.078-6.172,15.605-6.504,186.997-6.504c171.367,0,176.914,0.332,186.992,6.504
		c19.189,12.041,21.133,20.488,21.133,96.592c0,76.089-1.943,84.546-23.096,96.904c-10.732,6.172-17.549,6.504-178.535,7.158
		C554.473,748.662,474.141,747.686,468.608,746.382z M526.172,646.88v-56.919h-14.634h-14.634v56.919v56.904h14.634h14.634V646.88z
		 M578.53,678.745c3.257-19.839,4.551-23.418,6.504-17.236c1.304,4.551,2.275,13.657,2.607,20.166
		c0.645,20.483,2.271,22.109,23.413,22.109h19.185V646.88v-56.919h-13.008h-13.008l-0.322,26.992l-0.332,26.675l-5.195-26.675
		c-4.561-26.025-5.21-26.992-13.662-26.992c-8.457,0-9.102,0.967-13.667,26.992l-4.873,26.675l-0.649-26.675l-0.322-26.992h-13.008
		H539.18v56.919v56.904h17.563h17.886L578.53,678.745z M705.029,697.28c5.859-5.85,6.514-10.728,6.514-47.49
		c0-22.417-1.631-43.569-3.252-46.812c-4.238-7.803-22.441-13.018-46.182-13.018h-18.857v56.919v56.904h27.637
		C694.297,703.784,699.521,702.812,705.029,697.28z M747.314,692.07c0-9.424,0.986-11.377,5.195-9.756
		c14.961,5.864,20.498,5.532,27.002-0.972c6.182-6.177,6.826-10.728,6.826-43.555c0-32.866-0.645-37.739-6.504-42.944
		s-8.135-5.537-20.166-1.953c-9.756,3.252-13.984,3.252-14.961,0.645c-0.654-1.943-6.162-3.574-12.354-3.574h-11.055v56.919v56.904
		h12.998C746.982,703.784,747.314,703.452,747.314,692.07z"/>
</g>
</svg>
