<?xml version="1.0" encoding="utf-8"?>
<!-- Generator: Adobe Illustrator 16.0.0, SVG Export Plug-In . SVG Version: 6.00 Build 0)  -->
<!DOCTYPE svg PUBLIC "-//W3C//DTD SVG 1.1//EN" "http://www.w3.org/Graphics/SVG/1.1/DTD/svg11.dtd">
<svg version="1.1" id="Layer_1" xmlns="http://www.w3.org/2000/svg" xmlns:xlink="http://www.w3.org/1999/xlink" x="0px" y="0px"
	 width="48px" height="48px" viewBox="0 0 48 48" enable-background="new 0 0 48 48" xml:space="preserve">
<g>
	<g>
		<g>
			<polygon fill="#202020" points="32.986,29.869 19.687,17.692 21.856,15.323 16.196,15.572 16.446,21.232 18.616,18.862 
				31.914,31.039 			"/>
		</g>
	</g>
</g>
<circle fill="none" stroke="#000000" stroke-width="2" stroke-miterlimit="10" cx="29.908" cy="12.085" r="5.625"/>
<circle fill="none" stroke="#808080" stroke-width="2" stroke-miterlimit="10" cx="36.449" cy="34.408" r="5.625"/>
<g>
	<line x1="10.897" y1="18.516" x2="12.098" y2="27.141"/>
	<g>
		<g>
			<polygon fill="#909090" points="10.112,18.625 10.701,22.855 10.76,23.282 7.578,23.725 12.098,27.141 15.514,22.62 
				12.332,23.063 12.272,22.637 11.683,18.406 			"/>
		</g>
	</g>
</g>
<g>
	<line x1="19.031" y1="33.849" x2="29.908" y2="35.154"/>
	<g>
		<g>
			<polygon fill="#909090" points="18.936,34.636 25.408,35.413 25.836,35.465 25.453,38.654 29.908,35.154 26.408,30.699 
				26.025,33.89 25.598,33.838 19.125,33.062 			"/>
		</g>
	</g>
</g>
<g>
	<g>
		<g>
			<polygon fill="#202020" points="31.688,17.412 33.545,23.865 33.664,24.278 30.576,25.167 35.533,27.909 38.275,22.951 
				35.188,23.84 35.068,23.426 33.213,16.974 			"/>
		</g>
	</g>
</g>
<circle fill="none" stroke="#808080" stroke-width="2" stroke-miterlimit="10" cx="10.154" cy="12.724" r="5.625"/>
<circle fill="none" stroke="#808080" stroke-width="2" stroke-miterlimit="10" cx="12.956" cy="33.627" r="5.625"/>
</svg>
