<?xml version="1.0" encoding="utf-8"?>
<!-- Generator: Adobe Illustrator 16.0.0, SVG Export Plug-In . SVG Version: 6.00 Build 0)  -->
<!DOCTYPE svg PUBLIC "-//W3C//DTD SVG 1.1//EN" "http://www.w3.org/Graphics/SVG/1.1/DTD/svg11.dtd">
<svg version="1.1" id="Layer_1" xmlns="http://www.w3.org/2000/svg" xmlns:xlink="http://www.w3.org/1999/xlink" x="0px" y="0px"
	 width="48px" height="48px" viewBox="0 0 48 48" enable-background="new 0 0 48 48" xml:space="preserve">
<path d="M40.459,4.866c-2.087,0-3.785,1.698-3.785,3.785c0,0.489,0.098,0.977,0.281,1.428l-6.217,6.216
	c-1.576-1.173-3.529-1.868-5.641-1.868c-1.688,0-3.333,0.449-4.784,1.301l-3.905-4.484c0.264-0.525,0.403-1.105,0.403-1.696
	c0-2.087-1.698-3.785-3.785-3.785S9.242,7.461,9.242,9.548s1.698,3.785,3.785,3.785c0.395,0,0.781-0.06,1.152-0.179l3.861,4.434
	c-1.562,1.743-2.418,3.968-2.418,6.315c0,0.939,0.14,1.869,0.416,2.769l-8.504,6.051c-0.598-0.371-1.279-0.565-1.99-0.565
	c-2.087,0-3.785,1.698-3.785,3.784c0,2.089,1.698,3.785,3.785,3.785s3.785-1.696,3.785-3.785c0-0.278-0.031-0.557-0.091-0.825
	l8.11-5.771c1.045,1.484,2.503,2.648,4.177,3.332l-0.904,2.55c-1.924,0.178-3.438,1.805-3.438,3.77c0,2.088,1.698,3.785,3.785,3.785
	c2.087,0,3.785-1.697,3.785-3.785c0-1.109-0.493-2.162-1.333-2.879l0.981-2.766c0.238,0.02,0.471,0.028,0.699,0.028
	c1.213,0,2.394-0.229,3.514-0.68l4.066,4.901c-0.281,0.539-0.43,1.135-0.43,1.748c0,2.086,1.698,3.783,3.784,3.783
	c2.088,0,3.786-1.697,3.786-3.783c0-2.088-1.698-3.785-3.786-3.785c-0.374,0-0.741,0.056-1.097,0.162l-3.774-4.549
	c2.174-1.811,3.41-4.436,3.41-7.275c0-2.056-0.658-3.96-1.774-5.515l6.233-6.233c0.452,0.185,0.938,0.281,1.428,0.281
	c2.087,0,3.785-1.698,3.785-3.785S42.546,4.866,40.459,4.866z M25.098,18.793c2.817,0,5.109,2.292,5.109,5.109
	c0,2.818-2.292,5.109-5.109,5.109c-2.817,0-5.109-2.291-5.109-5.109C19.988,21.085,22.28,18.793,25.098,18.793z"/>
<circle cx="24.666" cy="24" r="7"/>
</svg>
