<?xml version="1.0" encoding="utf-8"?>
<!-- Generator: Adobe Illustrator 16.0.0, SVG Export Plug-In . SVG Version: 6.00 Build 0)  -->
<!DOCTYPE svg PUBLIC "-//W3C//DTD SVG 1.1//EN" "http://www.w3.org/Graphics/SVG/1.1/DTD/svg11.dtd">
<svg version="1.1" id="Layer_1" xmlns="http://www.w3.org/2000/svg" xmlns:xlink="http://www.w3.org/1999/xlink" x="0px" y="0px"
	 width="48px" height="48px" viewBox="0 0 48 48" enable-background="new 0 0 48 48" xml:space="preserve">
<g>
	<g>
		<g>
			<g>
				<polygon fill="none" points="26.988,35.866 29.667,32.964 30.369,32.203 30.803,31.734 31.549,30.926 34.203,28.05 
					30.309,24.455 27.653,27.33 26.907,28.139 26.475,28.607 25.772,29.368 23.094,32.271 				"/>
				<rect x="26.157" y="29.655" transform="matrix(-0.7348 -0.6783 0.6783 -0.7348 30.3157 71.552)" width="5.977" height="0.39"/>
				<polygon points="26.34,28.483 26.118,28.723 30.51,32.777 30.731,32.537 30.775,32.49 26.383,28.436 				"/>
				<polygon fill="#FFFFFF" points="26.772,28.014 26.383,28.436 30.775,32.49 31.165,32.068 31.209,32.02 26.817,27.966 				"/>
				
					<rect x="30.244" y="30.544" transform="matrix(-0.7343 -0.6788 0.6788 -0.7343 31.5046 76.2564)" fill="#010101" width="0.862" height="2.838"/>
				<rect x="30.044" y="30.18" transform="matrix(-0.7352 -0.6778 0.6778 -0.7352 31.085 75.3403)" width="0.425" height="2.839"/>
				<polygon fill="#010101" points="27.519,27.206 27.08,27.681 31.474,31.733 31.91,31.26 31.954,31.213 27.562,27.159 				"/>
				
					<rect x="25.085" y="30.657" transform="matrix(-0.7348 -0.6783 0.6783 -0.7348 27.6688 72.8394)" fill="#010101" width="5.977" height="0.708"/>
			</g>
			<g>
				<polygon fill="none" points="22.71,31.916 25.389,29.015 26.091,28.254 26.524,27.784 27.271,26.977 29.925,24.101 
					26.03,20.505 23.375,23.381 22.629,24.189 22.196,24.658 21.494,25.419 18.815,28.32 				"/>
				<g>
					<polygon fill="#010101" points="23.126,23.151 22.688,23.626 27.081,27.68 27.519,27.206 27.562,27.158 23.169,23.105 					"/>
					
						<rect x="20.693" y="26.602" transform="matrix(-0.7348 -0.6783 0.6783 -0.7348 22.7992 62.8262)" fill="#010101" width="5.978" height="0.709"/>
					
						<rect x="21.764" y="25.601" transform="matrix(-0.7348 -0.6783 0.6783 -0.7348 25.445 61.5394)" width="5.978" height="0.389"/>
					<polygon points="21.947,24.429 21.726,24.668 26.118,28.723 26.34,28.483 26.383,28.436 21.991,24.381 					"/>
					<polygon fill="#FFFFFF" points="22.381,23.959 21.991,24.381 26.383,28.436 26.772,28.014 26.817,27.966 22.425,23.911 					
						"/>
				</g>
			</g>
			<g>
				<polygon fill="none" points="22.851,22.896 25.505,20.021 21.61,16.425 14.395,24.24 18.291,27.836 20.93,24.977 				"/>
				<g>
					<polygon fill="#010101" points="20.748,21.043 20.311,21.517 22.646,23.672 23.083,23.199 23.126,23.151 20.792,20.996 					
						"/>
					
						<rect x="18.686" y="23.543" transform="matrix(-0.7348 -0.6783 0.6783 -0.7348 18.964 55.2103)" fill="#010101" width="3.178" height="0.71"/>
					
						<rect x="19.757" y="22.543" transform="matrix(-0.7348 -0.6783 0.6783 -0.7348 21.6082 53.9248)" width="3.178" height="0.39"/>
					<polygon points="19.569,22.321 19.348,22.56 21.683,24.715 21.904,24.476 21.948,24.428 19.613,22.272 					"/>
					<polygon fill="#FFFFFF" points="20.002,21.852 19.613,22.272 21.948,24.428 22.337,24.007 22.381,23.959 20.046,21.804 					
						"/>
				</g>
				
					<rect x="17.299" y="16.812" transform="matrix(0.7348 0.6783 -0.6783 0.7348 20.3025 -7.6627)" fill="none" width="5.301" height="10.636"/>
				<line fill="none" x1="18.044" y1="20.371" x2="24.174" y2="19.674"/>
				<polygon fill="#010101" points="20.396,23.524 18.483,25.596 18.638,20.926 23.283,20.397 21.357,22.483 21.478,22.595 
					21.959,22.074 24.174,19.674 18.044,20.371 17.84,26.536 20.036,24.157 20.517,23.636 				"/>
				<path d="M23.283,20.397l-4.645,0.529l-0.154,4.67l1.913-2.072l0.263-0.285l-0.049-0.045c-0.301,0.229-0.611,0.307-0.765,0.166
					c-0.194-0.179-0.06-0.64,0.299-1.03c0.36-0.39,0.809-0.56,1.003-0.381c0.153,0.142,0.101,0.457-0.104,0.776l0.049,0.045
					l0.265-0.287L23.283,20.397z"/>
				<path fill="#FFFFFF" d="M21.147,21.949c-0.194-0.179-0.643-0.009-1.003,0.381c-0.359,0.39-0.493,0.851-0.299,1.03
					c0.153,0.142,0.464,0.063,0.765-0.166c0.081-0.061,0.162-0.132,0.238-0.215s0.139-0.168,0.195-0.254
					C21.248,22.406,21.3,22.09,21.147,21.949z"/>
			</g>
		</g>
	</g>
</g>
<g>
	<g>
		<g>
			<g>
				<polygon fill="none" points="16.883,19.721 12.982,20.334 11.959,20.494 11.328,20.593 10.242,20.764 6.375,21.371 6.736,23.67 
					10.603,23.062 11.689,22.892 12.32,22.793 13.343,22.632 17.244,22.02 				"/>
				<rect x="9.929" y="21.521" transform="matrix(0.1552 0.9879 -0.9879 0.1552 30.9493 7.2404)" width="2.624" height="0.389"/>
				<polygon points="12.333,22.873 12.655,22.822 12.248,20.23 11.926,20.281 11.862,20.291 12.269,22.883 				"/>
				<polygon fill="#FFFFFF" points="11.702,22.972 12.269,22.883 11.862,20.291 11.295,20.38 11.23,20.39 11.637,22.982 				"/>
				
					<rect x="11.387" y="19.108" transform="matrix(0.1562 0.9877 -0.9877 0.1562 30.0425 5.8864)" fill="#010101" width="0.378" height="2.838"/>
				<rect x="11.536" y="19.346" transform="matrix(0.1542 0.988 -0.988 0.1542 30.3527 6.0725)" width="0.187" height="2.839"/>
				<polygon fill="#010101" points="10.615,23.143 11.254,23.042 10.845,20.45 10.208,20.55 10.145,20.561 10.553,23.152 				"/>
				
					<rect x="11.49" y="21.117" transform="matrix(0.1552 0.9879 -0.9879 0.1552 32.0254 5.4917)" fill="#010101" width="2.624" height="0.709"/>
			</g>
			<g>
				<polygon fill="none" points="17.28,22.246 13.378,22.859 12.355,23.02 11.725,23.118 10.639,23.289 6.772,23.896 7.133,26.195 
					11,25.588 12.086,25.417 12.717,25.318 13.739,25.157 17.641,24.545 				"/>
				<g>
					<polygon fill="#010101" points="11.022,25.734 11.661,25.634 11.252,23.042 10.615,23.143 10.552,23.152 10.96,25.744 					"/>
					
						<rect x="11.896" y="23.709" transform="matrix(0.155 0.9879 -0.9879 0.155 34.9342 7.2852)" fill="#010101" width="2.624" height="0.709"/>
					<rect x="10.336" y="24.113" transform="matrix(0.155 0.9879 -0.9879 0.155 33.857 9.0332)" width="2.624" height="0.39"/>
					<polygon points="12.74,25.465 13.062,25.414 12.655,22.822 12.333,22.873 12.269,22.883 12.676,25.475 					"/>
					<polygon fill="#FFFFFF" points="12.109,25.563 12.676,25.475 12.269,22.883 11.702,22.972 11.637,22.982 12.044,25.574 					
						"/>
				</g>
			</g>
			<g>
				<polygon fill="none" points="11.048,25.897 7.182,26.505 7.542,28.804 18.05,27.153 17.689,24.854 13.845,25.458 				"/>
				<g>
					<polygon fill="#010101" points="11.303,27.103 11.939,27.003 11.723,25.624 11.086,25.725 11.022,25.734 11.239,27.112 					
						"/>
					
						<rect x="12.886" y="25.683" transform="matrix(0.1551 0.9879 -0.9879 0.1551 37.2 8.5809)" fill="#010101" width="1.395" height="0.71"/>
					<rect x="11.327" y="26.087" transform="matrix(0.1551 0.9879 -0.9879 0.1551 36.124 10.3283)" width="1.395" height="0.391"/>
					<polygon points="13.02,26.833 13.341,26.782 13.125,25.404 12.803,25.455 12.739,25.465 12.955,26.843 					"/>
					<polygon fill="#FFFFFF" points="12.389,26.932 12.955,26.843 12.739,25.465 12.172,25.554 12.109,25.563 12.325,26.941 					
						"/>
				</g>
				
					<rect x="11.452" y="21.511" transform="matrix(-0.1551 -0.9879 0.9879 -0.1551 -11.9323 43.4528)" fill="none" width="2.327" height="10.637"/>
				<line fill="none" x1="12.792" y1="27.954" x2="7.905" y2="26.93"/>
				<polygon fill="#010101" points="13.242,26.165 16.027,25.728 12.742,27.601 9.038,26.825 11.842,26.385 11.831,26.313 
					11.131,26.424 7.905,26.93 12.792,27.954 17.13,25.481 13.931,25.983 13.231,26.094 				"/>
				<path d="M9.038,26.825l3.705,0.775l3.285-1.873l-2.785,0.438l-0.383,0.061l0.004,0.028c0.372-0.028,0.649,0.006,0.664,0.096
					c0.018,0.115-0.392,0.274-0.916,0.356c-0.524,0.083-0.963,0.057-0.981-0.059c-0.014-0.09,0.238-0.208,0.603-0.294l-0.005-0.029
					l-0.386,0.061L9.038,26.825z"/>
				<path fill="#FFFFFF" d="M11.63,26.647c0.018,0.115,0.457,0.142,0.981,0.059c0.524-0.082,0.934-0.241,0.916-0.356
					c-0.014-0.09-0.292-0.124-0.664-0.096c-0.1,0.008-0.207,0.02-0.317,0.037s-0.214,0.039-0.313,0.062
					C11.869,26.439,11.616,26.558,11.63,26.647z"/>
			</g>
		</g>
	</g>
</g>
<g>
	<g>
		<g>
			<g>
				<polygon fill="none" points="19.736,30.42 19.276,34.342 19.155,35.37 19.081,36.004 18.952,37.097 18.496,40.983 
					21.758,41.367 22.215,37.479 22.343,36.388 22.417,35.753 22.538,34.725 22.999,30.803 				"/>
				<rect x="18.735" y="36.248" transform="matrix(0.9932 0.1168 -0.1168 0.9932 4.3979 -2.1552)" width="3.704" height="0.39"/>
				<polygon points="22.53,35.767 22.568,35.442 18.89,35.011 18.852,35.334 18.844,35.398 22.523,35.83 				"/>
				<polygon fill="#FFFFFF" points="22.456,36.4 22.523,35.83 18.844,35.398 18.777,35.969 18.77,36.033 22.448,36.466 				"/>
				
					<rect x="18.805" y="34.328" transform="matrix(0.9931 0.1171 -0.1171 0.9931 4.3154 -1.9867)" fill="#010101" width="0.534" height="2.838"/>
				<rect x="19.284" y="34.351" transform="matrix(0.9934 0.1149 -0.1149 0.9934 4.2388 -1.994)" width="0.263" height="2.839"/>
				<polygon fill="#010101" points="22.328,37.493 22.403,36.851 18.725,36.421 18.649,37.061 18.642,37.125 22.32,37.556 				"/>
				
					<rect x="18.919" y="34.52" transform="matrix(0.9932 0.1165 -0.1165 0.9932 4.2056 -2.1829)" fill="#010101" width="3.704" height="0.709"/>
			</g>
			<g>
				<polygon fill="none" points="23.32,30.841 22.859,34.763 22.739,35.791 22.664,36.425 22.536,37.518 22.079,41.404 
					25.342,41.788 25.798,37.9 25.927,36.809 26.001,36.174 26.122,35.146 26.582,31.224 				"/>
				<g>
					<polygon fill="#010101" points="26.006,37.925 26.082,37.283 22.403,36.853 22.328,37.493 22.32,37.557 25.999,37.988 					"/>
					
						<rect x="22.597" y="34.952" transform="matrix(0.9932 0.1165 -0.1165 0.9932 4.281 -2.6086)" fill="#010101" width="3.704" height="0.709"/>
					<rect x="22.413" y="36.68" transform="matrix(0.9932 0.1165 -0.1165 0.9932 4.4626 -2.5765)" width="3.704" height="0.389"/>
					<polygon points="26.209,36.198 26.247,35.874 22.568,35.442 22.53,35.767 22.523,35.83 26.201,36.263 					"/>
					<polygon fill="#FFFFFF" points="26.135,36.833 26.201,36.263 22.523,35.83 22.456,36.4 22.448,36.466 26.127,36.897 					"/>
				</g>
			</g>
			<g>
				<polygon fill="none" points="26.237,37.952 25.781,41.839 29.044,42.223 30.284,31.658 27.021,31.275 26.567,35.141 				"/>
				<g>
					<polygon fill="#010101" points="27.97,38.091 28.045,37.45 26.089,37.221 26.014,37.86 26.006,37.925 27.962,38.154 					"/>
					
						<rect x="26.289" y="35.219" transform="matrix(0.9932 0.1165 -0.1165 0.9932 4.331 -2.9358)" fill="#010101" width="1.969" height="0.71"/>
					<rect x="26.105" y="36.946" transform="matrix(0.9932 0.1166 -0.1166 0.9932 4.5148 -2.9049)" width="1.969" height="0.39"/>
					<polygon points="28.172,36.364 28.21,36.041 26.255,35.812 26.217,36.135 26.209,36.199 28.165,36.429 					"/>
					<polygon fill="#FFFFFF" points="28.098,36.998 28.165,36.429 26.209,36.199 26.143,36.769 26.135,36.833 28.09,37.062 					"/>
				</g>
				
					<rect x="26.39" y="31.43" transform="matrix(-0.9932 -0.1168 0.1168 -0.9932 51.5804 76.5203)" fill="none" width="3.285" height="10.637"/>
				<line fill="none" x1="29.629" y1="36.937" x2="26.604" y2="41.283"/>
				<polygon fill="#010101" points="27.334,35.94 27.662,33.14 29.13,36.873 26.837,40.167 27.168,37.348 27.066,37.336 
					26.984,38.04 26.604,41.283 29.629,36.937 27.692,32.008 27.314,35.224 27.232,35.928 				"/>
				<path d="M26.837,40.167l2.293-3.294l-1.468-3.733l-0.328,2.801l-0.046,0.385l0.042,0.005c0.084-0.365,0.223-0.619,0.351-0.604
					c0.163,0.019,0.245,0.461,0.183,0.987c-0.062,0.527-0.244,0.938-0.406,0.919c-0.128-0.015-0.205-0.293-0.202-0.669l-0.041-0.005
					l-0.046,0.389L26.837,40.167z"/>
				<path fill="#FFFFFF" d="M27.457,37.633c0.162,0.02,0.345-0.392,0.406-0.919c0.062-0.526-0.02-0.969-0.183-0.987
					c-0.128-0.016-0.267,0.238-0.351,0.604c-0.023,0.098-0.043,0.203-0.056,0.314c-0.013,0.112-0.019,0.218-0.02,0.319
					C27.252,37.34,27.329,37.618,27.457,37.633z"/>
			</g>
		</g>
	</g>
</g>
<g>
	<g>
		<g>
			<g>
				<polygon fill="none" points="38.347,17.834 34.56,18.954 33.567,19.248 32.955,19.429 31.9,19.741 28.146,20.851 29.205,24.43 
					32.959,23.32 34.013,23.009 34.625,22.828 35.618,22.534 39.405,21.415 				"/>
				<rect x="31.099" y="20.993" transform="matrix(0.2835 0.959 -0.959 0.2835 44.1092 -16.66)" width="4.209" height="0.39"/>
				<polygon points="34.662,22.952 34.975,22.859 33.781,18.823 33.469,18.915 33.407,18.934 34.601,22.97 				"/>
				<polygon fill="#FFFFFF" points="34.05,23.133 34.601,22.97 33.407,18.934 32.856,19.096 32.794,19.115 33.987,23.151 				"/>
				
					<rect x="32.883" y="17.896" transform="matrix(0.2834 0.959 -0.959 0.2834 42.3031 -17.9853)" fill="#010101" width="0.606" height="2.837"/>
				<rect x="33.163" y="18.265" transform="matrix(0.2838 0.9589 -0.9589 0.2838 42.736 -17.8446)" width="0.299" height="2.839"/>
				<polygon fill="#010101" points="32.995,23.444 33.615,23.261 32.42,19.225 31.802,19.408 31.74,19.426 32.935,23.462 				"/>
				
					<rect x="32.613" y="20.386" transform="matrix(0.2837 0.9589 -0.9589 0.2837 44.7563 -18.4356)" fill="#010101" width="4.21" height="0.709"/>
			</g>
			<g>
				<polygon fill="none" points="39.51,21.767 35.723,22.887 34.729,23.18 34.117,23.361 33.062,23.673 29.31,24.782 30.368,28.362 
					34.121,27.253 35.176,26.941 35.788,26.76 36.781,26.467 40.568,25.347 				"/>
				<g>
					<polygon fill="#010101" points="34.188,27.481 34.809,27.298 33.613,23.262 32.995,23.444 32.934,23.463 34.128,27.499 					
						"/>
					
						<rect x="33.807" y="24.422" transform="matrix(0.2835 0.959 -0.959 0.2835 49.4927 -16.6849)" fill="#010101" width="4.21" height="0.71"/>
					<rect x="32.293" y="25.03" transform="matrix(0.2835 0.959 -0.959 0.2835 48.8337 -14.9128)" width="4.209" height="0.39"/>
					<polygon points="35.855,26.988 36.168,26.896 34.975,22.859 34.662,22.952 34.601,22.97 35.794,27.007 					"/>
					<polygon fill="#FFFFFF" points="35.243,27.169 35.794,27.007 34.601,22.97 34.05,23.133 33.987,23.151 35.181,27.188 					"/>
				</g>
			</g>
			<g>
				<polygon fill="none" points="34.264,27.735 30.511,28.845 31.568,32.425 41.77,29.409 40.711,25.829 36.979,26.933 				"/>
				<g>
					<polygon fill="#010101" points="34.885,29.609 35.503,29.426 34.868,27.28 34.251,27.463 34.188,27.481 34.823,29.627 					"/>
					
						<rect x="35.768" y="27.495" transform="matrix(0.2837 0.9589 -0.9589 0.2837 53.128 -15.4226)" fill="#010101" width="2.237" height="0.71"/>
					<rect x="34.254" y="28.102" transform="matrix(0.2836 0.9589 -0.9589 0.2836 52.478 -13.6478)" width="2.238" height="0.391"/>
					<polygon points="36.552,29.116 36.864,29.023 36.229,26.878 35.918,26.97 35.854,26.988 36.489,29.135 					"/>
					<polygon fill="#FFFFFF" points="35.939,29.297 36.489,29.135 35.854,26.988 35.305,27.151 35.243,27.169 35.878,29.315 					
						"/>
				</g>
				
					<rect x="34.274" y="23.808" transform="matrix(-0.2833 -0.959 0.959 -0.2833 18.4456 72.0384)" fill="none" width="3.733" height="10.638"/>
				<line fill="none" x1="36.657" y1="30.879" x2="31.374" y2="29.48"/>
				<polygon fill="#010101" points="36.578,28.062 39.281,27.264 36.5,30.329 32.496,29.27 35.219,28.465 35.186,28.354 
					34.506,28.554 31.374,29.48 36.657,30.879 40.33,26.832 37.225,27.75 36.545,27.951 				"/>
				<path d="M32.496,29.27l4.004,1.06l2.781-3.065l-2.703,0.799l-0.372,0.11l0.013,0.045c0.37-0.061,0.663-0.019,0.704,0.122
					c0.053,0.179-0.316,0.445-0.824,0.596c-0.509,0.15-0.964,0.127-1.017-0.052c-0.041-0.141,0.18-0.335,0.524-0.484l-0.013-0.046
					l-0.375,0.111L32.496,29.27z"/>
				<path fill="#FFFFFF" d="M35.082,28.884c0.053,0.179,0.508,0.202,1.017,0.052c0.508-0.15,0.877-0.417,0.824-0.596
					c-0.041-0.141-0.334-0.183-0.704-0.122c-0.099,0.017-0.204,0.039-0.312,0.071c-0.107,0.031-0.207,0.069-0.301,0.11
					C35.262,28.549,35.041,28.743,35.082,28.884z"/>
			</g>
		</g>
	</g>
</g>
<rect x="28.107" y="8.583" fill="none" stroke="#000000" stroke-width="2" stroke-miterlimit="10" width="10.083" height="10.083"/>
<rect x="30.606" y="31.93" fill="none" stroke="#000000" stroke-width="2" stroke-miterlimit="10" width="10.083" height="10.084"/>
<rect x="6.812" y="9.5" fill="none" stroke="#000000" stroke-width="2" stroke-miterlimit="10" width="10.083" height="10.083"/>
<rect x="8.107" y="28.957" fill="none" stroke="#000000" stroke-width="2" stroke-miterlimit="10" width="10.083" height="10.084"/>
</svg>
