<?xml version="1.0" encoding="utf-8"?>
<!-- Generator: Adobe Illustrator 16.0.0, SVG Export Plug-In . SVG Version: 6.00 Build 0)  -->
<!DOCTYPE svg PUBLIC "-//W3C//DTD SVG 1.1//EN" "http://www.w3.org/Graphics/SVG/1.1/DTD/svg11.dtd">
<svg version="1.1" id="Layer_1" xmlns="http://www.w3.org/2000/svg" xmlns:xlink="http://www.w3.org/1999/xlink" x="0px" y="0px"
	 width="48px" height="48px" viewBox="86 86 48 48" enable-background="new 86 86 48 48" xml:space="preserve">
<g transform="translate(0.000000,220.000000) scale(0.100000,-0.100000)">
	<path d="M935.522,1096.064V931.66h164.399h164.414v7.334v7.168l-22.314,0.479l-22.451,0.469l-0.498,6.846l-0.479,6.855l22.48,0.498
		l22.432,0.469l0.498,7.812l0.479,7.812l-22.461-0.479l-22.451-0.498l-0.498-7.812l-0.479-7.637h-7.334h-7.168v-7.334v-7.314
		h-29.287h-29.297v15.615v15.459l7.002-0.479l6.836-0.498l0.479-7.646l0.498-7.803h14.648h14.473v22.783v22.793h7.334h7.314v-7.334
		v-7.314h30.127h30.117v7.314v7.334h-7.334h-7.314v7.305v7.334h7.314h7.334v7.334v7.314h-7.334h-7.314v7.168v7.334l7.002,0.479
		l6.816,0.479l0.498,7.832l0.479,7.637h-7.314h-7.48v7.334v7.314h7.314h7.334v7.334v7.314h-14.648h-14.668v7.334v7.324h14.668
		h14.648v7.319v7.329h-14.648h-14.668v7.319v7.163l14.336,0.493l14.15,0.488l0.498,7.808l0.479,7.656h-7.314h-7.48v7.319v7.329
		h7.314h7.334v7.324v7.329h-7.334h-7.314v7.324v7.319h7.314h7.334v7.329v7.319h-7.334h-7.314v7.163v7.329l7.002,0.488l6.816,0.483
		l0.498,7.817l0.479,7.646h-7.314h-7.48v7.329v7.324h-7.334h-7.334v-7.324v-7.329h-8.135h-8.145v7.329v7.324h-7.314h-7.48
		l0.479-14.976l0.498-15.142l6.982-0.483l6.836-0.488v-7.329v-7.163h-14.648h-14.648v7.329v7.324h-14.639h-14.648v15.464v15.464
		h-7.334h-7.314v-15.464v-15.464h7.314h7.334v-7.324v-7.329h14.648h14.639v-7.319v-7.329h-7.305h-7.334v-7.319v-7.324h-7.314h-7.334
		v7.324v7.319h-7.334h-7.314v7.329v7.319h-8.145h-8.135v-7.319v-7.329h-7.334h-7.314V1185.6v-14.653h7.314h7.334v-15.464v-15.464
		h-7.334h-7.314v8.135v8.145h-7.334h-7.324v21.973v21.973h-7.319h-7.329v7.329v7.319h-7.319h-7.329v22.793v22.788h-7.319h-7.329
		v-7.324v-7.329h-8.135h-8.145v7.329v7.324h-7.319h-7.324v-7.324v-7.329h-7.329h-7.324v7.329v7.324h-7.329h-7.319v-7.324v-7.329
		h-7.329h-7.319v7.329v7.324h-7.329h-7.324v-7.324v-7.329h7.324h7.329v-8.135v-8.14h-7.329h-7.324v-7.49v-7.324l6.997,0.488
		c6.841,0.493,6.841,0.493,7.329,7.49l0.488,6.836h7.329h7.158v-7.324v-7.329h7.319h7.329v7.329v7.324h7.324h7.329v8.14v8.135h7.163
		h7.324l0.483-7.646l0.488-7.817l7.817-0.483l7.812-0.488l-0.493-14.165l-0.483-14.16l-7.651-0.488l-7.817-0.483v7.319v7.485h-7.319
		h-7.324v-7.319v-7.329h-21.982h-21.968v-7.319v-7.324h-7.329h-7.324v7.324v7.319h-8.14h-8.135v30.112v30.117h-7.329h-7.324
		V1096.064z M1234.707,1208.061l-0.488-7.002l-7.646-0.488l-7.832-0.483v-30.117v-29.951h-14.648h-14.648v-7.329v-7.319h14.648
		h14.648v-7.329v-7.319h-14.648h-14.648v-7.324v-7.334h22.793h22.783v-7.314v-7.334h-8.135h-8.145v-15.449v-15.479h-14.648h-14.648
		v8.145v8.135h-7.305h-7.334v7.334v7.314h-7.314h-7.334v-7.314v-7.334h-7.168h-7.314l-0.498-7.637l-0.498-7.832l-14.98-0.479
		l-15.117-0.479v-14.502v-14.648h22.783h22.793v7.334v7.314h7.334h7.314v-21.982v-21.953h-7.314h-7.334v7.314v7.334h-22.793h-22.783
		v7.305v7.334h-7.334h-7.324v-7.334v-7.305h-7.319h-7.329v-14.648v-14.668h7.329h7.319v-8.144v-8.115h7.324h7.334v15.449v15.625
		l15.117-0.479l14.98-0.498l0.498-6.836l0.498-6.836l-7.832-0.479l-7.812-0.498l-0.469-7.646l-0.498-7.803h-7.314h-7.168v-7.334
		v-7.314h-7.334h-7.324v7.314v7.334h-7.319h-7.329v8.115v8.144h-7.319h-7.158l-0.498-15.146l-0.488-14.98l-6.831-0.469l-7.002-0.479
		v7.314v7.5h-8.135h-8.145v-7.334v-7.314h-7.319h-7.324v7.314v7.334h7.324h7.319v15.449v15.479h-7.319h-7.324v-7.334v-7.334h-14.492
		h-14.653l-0.483-7.646l-0.488-7.812l-6.841-0.469c-6.831-0.498-6.831-0.498-7.319-7.354l-0.488-6.846H965.64h-14.653l-0.488,7.031
		l-0.483,6.836h15.459h15.63v8.115v8.144h7.319h7.329v7.334v7.334h-7.329h-7.319v7.314v7.334h7.319h7.329v7.305v7.334h-14.648
		H966.45v7.334v7.314h14.653h14.648v7.334v7.314h14.648h14.653v8.145v8.135h-21.982h-21.968v7.334v7.314h-7.329h-7.324v-7.314
		v-7.334h-8.14h-8.135v7.334v7.314h8.135h8.14v7.334v7.314h7.324h7.329v7.334v7.324h-7.329h-7.324v7.319v7.329h7.324h7.329v15.464
		v15.464H965.64h-15.464v7.319v7.329h15.464h15.464v-7.329v-7.319h14.648h14.648v-8.145v-8.135h14.487h14.653l0.483,7.808
		l0.488,7.656l7.817,0.488l7.812,0.483l-0.493,6.841l-0.483,6.841l-7.651,0.483l-7.817,0.488v7.324v7.168h-7.319h-7.324v7.324v7.319
		h7.324h7.319v-7.319v-7.324h15.469h15.459v7.324v7.319h7.329h7.319v-7.319v-7.324h-7.319h-7.329v-14.653v-14.648h7.329h7.319
		v-8.145v-8.135h14.648h14.658v-7.329v-7.319h-14.658h-14.648v7.319v7.329h-7.319h-7.329v-14.648v-14.648h-7.319h-7.329v-14.658
		v-14.648h7.329h7.319v-7.314v-7.334h7.329h7.319v7.334v7.314h7.329h7.319v7.334v7.314h7.324h7.334v7.334v7.324h7.314h7.334v14.478
		v14.653l7.803,0.493l7.646,0.488v14.648v14.653l-7.646,0.483l-7.803,0.488v14.653v14.482h8.135h8.145v-7.319v-7.324h7.314h7.334
		v-37.446v-37.432h14.648h14.639v7.319v7.329h-7.305h-7.334v7.319v7.329h7.334h7.305v8.135v8.145h7.334h7.314v7.319v7.329h-14.648
		h-14.639v7.324v7.329h7.334h7.305v7.324v7.319h14.648h14.648v7.329v7.319h8.311h8.135L1234.707,1208.061z M1235.02,1021.191
		v-14.639h-8.135h-8.145v7.305v7.334h-7.314h-7.334v7.334v7.314h15.479h15.449V1021.191z"/>
	<path fill="#666666" d="M1011.221,1131.186v-6.235h-6.24h-6.235v-6.24v-6.235h6.235h6.24V1100v-12.48h6.235h6.24V1100v12.476h6.235
		h6.24v6.235v6.24h-6.24h-6.235v6.235v6.24h-6.24h-6.235V1131.186z"/>
	<path fill="#666666" d="M1112.402,1087.519v-12.471h-6.23h-6.24v-6.924v-6.934h-6.235h-6.24v-12.48v-12.471h-6.235h-6.24v12.471
		v12.48h-6.099h-6.235l-0.42-5.82l-0.415-5.967l-6.514-0.42l-6.655-0.41v-6.23v-6.104h-6.235h-6.235V1030v-6.23h6.235h6.235v-6.25
		v-6.23h6.934h6.929v-6.24v-6.24h6.24h6.235v6.24v6.24h-6.235h-6.24v6.23v6.25h12.476h12.476v6.23v6.24h6.24h6.235v12.471v12.48
		h6.24h6.23v6.934v6.924h6.24h6.24v6.24v6.23h13.164h13.174v6.25v6.23h-19.404h-19.414V1087.519z"/>
	<path fill="#666666" d="M1087.456,1233.764v-6.24h6.24h6.235v-13.169v-13.169h6.24h6.23v13.169v13.169h6.24h6.24v6.24V1240h-6.24
		h-6.24v-6.235v-6.24h-6.23h-6.24v6.24V1240h-6.235h-6.24V1233.764z"/>
</g>
<rect x="93.454" y="118.271" fill="#FFFFFF" width="1.025" height="4.854"/>
<rect x="93.454" y="106.686" fill="#FFFFFF" width="1.921" height="1.688"/>
<rect x="93.121" y="96.583" fill="#FFFFFF" width="2.254" height="1.688"/>
<rect x="116.402" y="125.333" fill="#FFFFFF" width="2.254" height="1.688"/>
<rect x="99.027" y="125.583" fill="#FFFFFF" width="1.879" height="1.688"/>
<rect x="107.371" y="125.583" fill="#FFFFFF" width="2.254" height="1.688"/>
</svg>
