<?xml version="1.0" encoding="utf-8"?>
<!-- Generator: Adobe Illustrator 16.0.0, SVG Export Plug-In . SVG Version: 6.00 Build 0)  -->
<!DOCTYPE svg PUBLIC "-//W3C//DTD SVG 1.1//EN" "http://www.w3.org/Graphics/SVG/1.1/DTD/svg11.dtd">
<svg version="1.1" id="Layer_1" xmlns="http://www.w3.org/2000/svg" xmlns:xlink="http://www.w3.org/1999/xlink" x="0px" y="0px"
	 width="48px" height="48px" viewBox="0 0 48 48" enable-background="new 0 0 48 48" xml:space="preserve">
<g>
	<path fill="none" d="M21.161,21.105c-2.286,6.101-3.898,14.359-14.182,14.906h15.854V16.443
		C22.152,17.582,21.724,19.607,21.161,21.105z"/>
	<path fill="none" d="M27.197,21.34c-0.641-1.554-1.278-3.639-2.03-4.829v19.501H45C32.167,36.013,30.052,28.266,27.197,21.34z"/>
	<path fill="#666666" d="M24,15.574c-0.471-0.005-0.847,0.335-1.167,0.87v19.569h2.334V16.511
		C24.807,15.944,24.423,15.578,24,15.574z"/>
	<path fill="#333333" d="M29.354,20.451C27.63,16.265,26.383,13.24,24,13.24c-2.381,0-3.489,2.955-5.022,7.047
		C16.367,27.25,15.96,34.334,3,33.68v2.333c3.5,0,1.954,0,3.979,0c10.283-0.548,11.896-8.807,14.182-14.906
		c0.562-1.499,0.991-3.524,1.672-4.662c0.32-0.534,0.696-0.875,1.167-0.87c0.423,0.004,0.807,0.37,1.167,0.938
		c0.752,1.19,1.39,3.275,2.03,4.829c2.854,6.924,4.97,14.671,17.803,14.671v-2.348C35.667,33.68,32.832,28.893,29.354,20.451z"/>
	<path fill="#B2B2B2" d="M45,36.013H25.167h-2.334H6.979c-2.025,0-0.479,0-3.979,0v2.334h42V36.013L45,36.013z"/>
</g>
</svg>
