<?xml version="1.0" standalone="no"?>
<!DOCTYPE svg PUBLIC "-//W3C//DTD SVG 20010904//EN"
 "http://www.w3.org/TR/2001/REC-SVG-20010904/DTD/svg10.dtd">
<svg version="1.0" xmlns="http://www.w3.org/2000/svg"
 width="512.000000pt" height="512.000000pt" viewBox="0 0 512.000000 512.000000"
 preserveAspectRatio="xMidYMid meet">
<metadata>
Created by potrace 1.12, written by Peter Selinger 2001-2015
</metadata>
<g transform="translate(0.000000,512.000000) scale(0.100000,-0.100000)"
fill="#000000" stroke="none">
<path d="M4403 4977 c-288 -50 -523 -94 -523 -98 0 -7 625 -520 656 -538 15
-9 74 -2 269 33 241 43 250 45 277 75 15 16 30 47 34 67 8 45 -50 401 -76 459
-21 47 -55 82 -90 89 -14 2 -260 -37 -547 -87z"/>
<path d="M3237 4775 c-164 -29 -301 -55 -303 -58 -4 -4 621 -521 654 -541 15
-9 643 93 642 104 -2 11 -664 545 -679 547 -9 1 -150 -23 -314 -52z"/>
<path d="M2257 4605 c-164 -29 -300 -55 -302 -56 -2 -2 148 -127 332 -278
l336 -274 306 52 c168 29 318 56 333 59 25 7 3 26 -303 277 -292 239 -334 270
-367 272 -20 0 -171 -23 -335 -52z"/>
<path d="M1367 4450 c-148 -26 -273 -52 -280 -59 -8 -8 5 -28 54 -79 36 -37
151 -157 255 -267 104 -110 196 -201 206 -203 17 -3 699 96 706 103 2 2 -625
519 -663 545 -5 4 -131 -14 -278 -40z"/>
<path d="M84 4279 c-16 -5 -41 -20 -55 -35 l-24 -26 -3 -579 -2 -579 345 0
345 0 234 288 c130 158 249 305 265 328 l31 41 -221 231 c-121 127 -233 248
-248 270 -50 68 -74 72 -374 71 -144 0 -276 -5 -293 -10z"/>
<path d="M1140 3313 c-107 -130 -196 -240 -198 -245 -2 -4 142 -8 321 -8 l324
0 196 239 c109 132 197 242 197 245 0 3 -145 6 -322 6 l-323 -1 -195 -236z"/>
<path d="M2084 3368 c-83 -101 -175 -211 -203 -245 l-53 -63 420 0 421 0 200
245 201 245 -418 0 -417 0 -151 -182z"/>
<path d="M3120 3314 c-107 -130 -196 -240 -198 -245 -2 -5 143 -9 350 -9 l354
0 190 231 c104 128 193 238 197 245 7 12 -49 14 -345 13 l-353 0 -195 -235z"/>
<path d="M4089 3328 c-101 -122 -192 -232 -202 -245 l-18 -23 610 0 611 0 0
245 0 245 -408 0 -408 0 -185 -222z"/>
<path d="M10 1515 c0 -1440 -3 -1368 55 -1413 l28 -22 2468 0 2467 0 31 26
c17 14 35 42 41 62 6 24 10 487 10 1355 l0 1317 -2550 0 -2550 0 0 -1325z"/>
</g>
</svg>
