<?xml version="1.0" encoding="utf-8"?>
<!-- Generator: Adobe Illustrator 16.0.0, SVG Export Plug-In . SVG Version: 6.00 Build 0)  -->
<!DOCTYPE svg PUBLIC "-//W3C//DTD SVG 1.1//EN" "http://www.w3.org/Graphics/SVG/1.1/DTD/svg11.dtd">
<svg version="1.1" id="Layer_1" xmlns="http://www.w3.org/2000/svg" xmlns:xlink="http://www.w3.org/1999/xlink" x="0px" y="0px"
	 width="48px" height="48px" viewBox="232 232 48 48" enable-background="new 232 232 48 48" xml:space="preserve">
<g transform="translate(0.000000,512.000000) scale(0.100000,-0.100000)">
	<path fill="#666666" d="M2699.424,2741.782c-21.768-3.779-39.531-7.104-39.531-7.407c0-0.527,47.236-39.302,49.58-40.664
		c1.133-0.679,5.605-0.151,20.332,2.495c18.223,3.252,18.906,3.403,20.938,5.669c1.133,1.211,2.275,3.55,2.578,5.063
		c0.605,3.403-3.789,30.312-5.742,34.692c-1.592,3.555-4.16,6.201-6.807,6.729
		C2739.707,2748.51,2721.113,2745.561,2699.424,2741.782z"/>
	<path fill="#666666" d="M2611.289,2726.513c-12.393-2.192-22.754-4.155-22.891-4.38c-0.312-0.303,46.934-39.38,49.424-40.894
		c1.143-0.679,48.604,7.031,48.525,7.861c-0.156,0.83-50.186,41.191-51.318,41.343
		C2634.345,2730.522,2623.691,2728.706,2611.289,2726.513z"/>
	<path fill="#666666" d="M2537.221,2713.667c-12.397-2.192-22.676-4.16-22.827-4.233c-0.151-0.151,11.187-9.6,25.093-21.011
		l25.396-20.713l23.125,3.931c12.705,2.192,24.043,4.233,25.176,4.458c1.895,0.532,0.225,1.968-22.9,20.938
		c-22.07,18.066-25.244,20.41-27.739,20.562C2561.03,2717.597,2549.614,2715.859,2537.221,2713.667z"/>
	<path fill="#666666" d="M2469.951,2701.948c-11.187-1.963-20.635-3.926-21.162-4.458c-0.605-0.605,0.376-2.114,4.077-5.972
		c2.725-2.793,11.416-11.865,19.277-20.181s14.814-15.19,15.571-15.342c1.284-0.229,52.832,7.256,53.359,7.783
		c0.151,0.151-47.241,39.229-50.112,41.196C2490.586,2705.278,2481.059,2703.916,2469.951,2701.948z"/>
	<path fill="#666666" d="M2372.973,2689.023c-1.206-0.376-3.096-1.509-4.155-2.642l-1.816-1.968l-0.225-43.765l-0.151-43.76h26.079
		h26.074l17.686,21.768c9.829,11.943,18.823,23.052,20.029,24.79l2.344,3.101l-16.704,17.461
		c-9.146,9.6-17.607,18.745-18.745,20.405c-3.779,5.142-5.591,5.444-28.267,5.366
		C2384.238,2689.78,2374.258,2689.404,2372.973,2689.023z"/>
	<path fill="#666666" d="M2452.793,2616.01c-8.086-9.824-14.814-18.14-14.966-18.521c-0.151-0.298,10.732-0.601,24.263-0.601h24.487
		l14.814,18.062c8.242,9.98,14.893,18.291,14.893,18.521c0,0.225-10.962,0.454-24.341,0.454l-24.414-0.078L2452.793,2616.01z"/>
	<path fill="#666666" d="M2524.145,2620.166c-6.274-7.632-13.228-15.947-15.347-18.516l-4.004-4.761h31.743h31.821l15.117,18.516
		l15.195,18.521h-31.602h-31.514L2524.145,2620.166z"/>
	<path fill="#666666" d="M2602.451,2616.088c-8.096-9.829-14.814-18.145-14.971-18.521c-0.146-0.376,10.811-0.679,26.465-0.679
		h26.758l14.355,17.461c7.861,9.673,14.59,17.988,14.883,18.516c0.537,0.908-3.691,1.06-26.074,0.981h-26.68L2602.451,2616.088z"/>
	<path fill="#666666" d="M2675.693,2617.143c-7.637-9.219-14.512-17.534-15.264-18.516l-1.367-1.738h46.113h46.172v18.516v18.521
		h-30.84h-30.83L2675.693,2617.143z"/>
	<path fill="#AAA9A9" d="M2367.383,2480.107c0-108.838-0.229-103.398,4.155-106.806l2.119-1.66H2560.2h186.46l2.344,1.973
		c1.289,1.055,2.656,3.164,3.105,4.688c0.449,1.816,0.762,36.807,0.762,102.412v99.546h-192.749h-192.739V2480.107z"/>
</g>
</svg>
