<?xml version="1.0" encoding="utf-8"?>
<!-- Generator: Adobe Illustrator 16.0.0, SVG Export Plug-In . SVG Version: 6.00 Build 0)  -->
<!DOCTYPE svg PUBLIC "-//W3C//DTD SVG 1.1//EN" "http://www.w3.org/Graphics/SVG/1.1/DTD/svg11.dtd">
<svg version="1.1" id="Layer_1" xmlns="http://www.w3.org/2000/svg" xmlns:xlink="http://www.w3.org/1999/xlink" x="0px" y="0px"
	 width="48px" height="48px" viewBox="268.5 239.5 48 48" enable-background="new 268.5 239.5 48 48" xml:space="preserve">
<g transform="translate(0.000000,527.000000) scale(0.100000,-0.100000)">
	<path d="M2917.578,2817.846c-3.281-0.508-5.811-1.768-5.811-2.778c0-3.789,176.143-177.397,178.174-175.625
		c0.996,1.006,1.25,0.752,0.488-0.762c-0.762-1.519,2.266-6.318,6.816-10.869c7.09-6.816,8.613-7.578,10.117-4.043
		c2.285,6.064,1.758,19.712-0.762,23.501c-1.27,2.021-38.398,39.927-82.637,84.404c-71.25,71.519-90.967,88.955-98.804,87.69
		C2924.15,2819.111,2920.61,2818.354,2917.578,2817.846z"/>
	<path d="M2825.849,2732.431l-46.499-46.499l5.811-6.318c3.286-3.53,7.08-5.811,8.594-4.795c1.514,0.757,1.772,0.503,1.011-1.016
		c-2.017-3.281,7.837-12.124,14.912-13.896c8.086-2.021,92.993,83.14,90.464,90.469c-2.778,7.329-11.621,16.172-14.658,14.404
		c-1.514-0.762-2.017-0.508-0.757,0.503c1.772,2.021-7.324,13.901-10.61,13.901
		C2873.105,2779.184,2851.626,2758.208,2825.849,2732.431z"/>
	<path d="M2879.17,2679.614c-38.159-38.657-41.191-42.197-39.673-48.765c2.021-8.086,77.832-85.166,86.167-87.686
		c4.043-1.27,13.906,7.324,48.77,42.197c40.449,40.42,43.467,44.229,41.191,50.034c-1.26,3.286-20.469,24.009-42.451,45.991
		c-30.068,29.565-41.943,39.678-46.494,39.678C2921.88,2721.064,2910.254,2710.952,2879.17,2679.614z M2911.01,2665.214
		c3.789-1.514,9.346-4.8,12.383-7.578c5.054-4.805,5.308-4.805,10.864,1.265c12.637,13.389,33.867,9.341,41.953-7.842
		c7.07-14.653,2.266-24.761-24.766-53.062l-23.506-24.268l-16.172,16.943c-9.351,9.844-17.437,16.416-19.458,15.4
		c-2.021-0.488-2.783,0-2.021,1.27c0.757,1.27-1.514,6.318-5.049,11.367c-7.837,10.117-10.366,25.278-5.815,34.121
		c1.768,3.535,7.324,8.335,12.129,10.62C2901.914,2668.754,2901.914,2668.754,2911.01,2665.214z"/>
	<path d="M2741.699,2640.957c-2.783-14.658,3.286-22.246,81.621-100.84c42.456-42.441,80.361-80.097,84.15-83.379
		c7.075-6.074,19.209-7.832,28.301-4.551c3.535,1.523,2.783,3.027-4.033,10.117c-6.831,7.07-8.853,8.066-12.134,5.293
		c-3.535-2.52-3.535-2.52-1.016,1.016c2.529,3.281-3.281,10.117-37.9,44.726c-22.744,22.734-41.953,40.43-42.964,39.678
		c-1.011-0.771-1.26-0.518-0.503,0.498c1.514,1.777-89.458,94.263-92.49,94.263
		C2743.72,2647.778,2742.456,2644.746,2741.699,2640.957z"/>
	<path d="M2996.679,2562.363c-36.143-36.387-42.207-43.711-40.684-48.262c1.514-4.804,2.266-5.058,5.811-2.285
		c3.779,3.047,4.033,2.793,0.752-1.25c-3.281-4.043-2.773-5.566,5.049-13.398l8.604-8.594l47.51,47.5l47.256,47.52l-9.355,9.102
		C3043.945,2609.863,3044.687,2610.126,2996.679,2562.363z"/>
</g>
</svg>
