<?xml version="1.0" standalone="no"?>
<!DOCTYPE svg PUBLIC "-//W3C//DTD SVG 20010904//EN"
 "http://www.w3.org/TR/2001/REC-SVG-20010904/DTD/svg10.dtd">
<svg version="1.0" xmlns="http://www.w3.org/2000/svg"
 width="220.000000pt" height="220.000000pt" viewBox="0 0 220.000000 220.000000"
 preserveAspectRatio="xMidYMid meet">
<metadata>
Created by potrace 1.12, written by Peter Selinger 2001-2015
</metadata>
<g transform="translate(0.000000,220.000000) scale(0.100000,-0.100000)"
fill="#000000" stroke="none">
<path d="M90 1100 l0 -1010 1010 0 1010 0 0 45 0 44 -137 3 -138 3 -3 42 -3
42 138 3 138 3 3 48 3 48 -138 -3 -138 -3 -3 -48 -3 -47 -45 0 -44 0 0 -45 0
-45 -180 0 -180 0 0 96 0 95 43 -3 42 -3 3 -47 3 -48 90 0 89 0 0 140 0 140
45 0 45 0 0 -45 0 -45 185 0 185 0 0 45 0 45 -45 0 -45 0 0 45 0 45 45 0 45 0
0 45 0 45 -45 0 -45 0 0 44 0 45 43 3 42 3 3 48 3 47 -45 0 -46 0 0 45 0 45
45 0 45 0 0 45 0 45 -90 0 -90 0 0 45 0 45 90 0 90 0 0 45 0 45 -90 0 -90 0 0
45 0 44 88 3 87 3 3 48 3 47 -45 0 -46 0 0 45 0 45 45 0 45 0 0 45 0 45 -45 0
-45 0 0 45 0 45 45 0 45 0 0 45 0 45 -45 0 -45 0 0 44 0 45 43 3 42 3 3 48 3
47 -45 0 -46 0 0 45 0 45 -45 0 -45 0 0 -45 0 -45 -50 0 -50 0 0 45 0 45 -45
0 -46 0 3 -92 3 -93 43 -3 42 -3 0 -45 0 -44 -90 0 -90 0 0 45 0 45 -90 0 -90
0 0 95 0 95 -45 0 -45 0 0 -95 0 -95 45 0 45 0 0 -45 0 -45 90 0 90 0 0 -45 0
-45 -45 0 -45 0 0 -45 0 -45 -45 0 -45 0 0 45 0 45 -45 0 -45 0 0 45 0 45 -50
0 -50 0 0 -45 0 -45 -45 0 -45 0 0 -90 0 -90 45 0 45 0 0 -95 0 -95 -45 0 -45
0 0 50 0 50 -45 0 -45 0 0 135 0 135 -45 0 -45 0 0 45 0 45 -45 0 -45 0 0 140
0 140 -45 0 -45 0 0 -45 0 -45 -50 0 -50 0 0 45 0 45 -45 0 -45 0 0 -45 0 -45
-45 0 -45 0 0 45 0 45 -45 0 -45 0 0 -45 0 -45 -45 0 -45 0 0 45 0 45 -45 0
-45 0 0 -45 0 -45 45 0 45 0 0 -50 0 -50 -45 0 -45 0 0 -46 0 -45 43 3 c42 3
42 3 45 46 l3 42 45 0 44 0 0 -45 0 -45 45 0 45 0 0 45 0 45 45 0 45 0 0 50 0
50 44 0 45 0 3 -47 3 -48 48 -3 48 -3 -3 -87 -3 -87 -47 -3 -48 -3 0 45 0 46
-45 0 -45 0 0 -45 0 -45 -135 0 -135 0 0 -45 0 -45 -45 0 -45 0 0 45 0 45 -50
0 -50 0 0 185 0 185 -45 0 -45 0 0 -1010z m1838 688 l-3 -43 -47 -3 -48 -3 0
-185 0 -184 -90 0 -90 0 0 -45 0 -45 90 0 90 0 0 -45 0 -45 -90 0 -90 0 0 -45
0 -45 140 0 140 0 0 -45 0 -45 -50 0 -50 0 0 -95 0 -95 -90 0 -90 0 0 50 0 50
-45 0 -45 0 0 45 0 45 -45 0 -45 0 0 -45 0 -45 -44 0 -45 0 -3 -47 -3 -48 -92
-3 -93 -3 0 -89 0 -90 140 0 140 0 0 45 0 45 45 0 45 0 0 -135 0 -135 -45 0
-45 0 0 45 0 45 -140 0 -140 0 0 45 0 45 -45 0 -45 0 0 -45 0 -45 -45 0 -45 0
0 -90 0 -90 45 0 45 0 0 -50 0 -50 45 0 45 0 0 95 0 96 93 -3 92 -3 3 -42 3
-42 -48 -3 -48 -3 -3 -47 -3 -48 -45 0 -44 0 0 -45 0 -45 -45 0 -45 0 0 45 0
45 -45 0 -45 0 0 50 0 50 -45 0 -44 0 -3 -93 -3 -92 -42 -3 -43 -3 0 45 0 46
-50 0 -50 0 0 -45 0 -45 -45 0 -45 0 0 45 0 45 45 0 45 0 0 95 0 95 -45 0 -45
0 0 -45 0 -45 -89 0 -90 0 -3 -47 -3 -48 -42 -3 c-42 -3 -42 -3 -45 -45 l-3
-42 -90 0 -90 0 -3 43 -3 42 95 0 96 0 0 50 0 50 45 0 45 0 0 45 0 45 -45 0
-45 0 0 45 0 45 45 0 45 0 0 45 0 45 -90 0 -90 0 0 45 0 45 90 0 90 0 0 45 0
45 90 0 90 0 0 50 0 50 -135 0 -135 0 0 45 0 45 -45 0 -45 0 0 -45 0 -45 -50
0 -50 0 0 45 0 45 50 0 50 0 0 45 0 45 45 0 45 0 0 45 0 45 -45 0 -45 0 0 45
0 45 45 0 45 0 0 95 0 95 -95 0 -95 0 0 45 0 45 95 0 95 0 0 -45 0 -45 90 0
90 0 0 -50 0 -50 89 0 90 0 3 48 3 47 48 3 48 3 -3 42 -3 42 -47 3 -48 3 0 45
0 44 -45 0 -45 0 0 45 0 45 45 0 45 0 0 -45 0 -45 95 0 95 0 0 45 0 45 45 0
45 0 0 -45 0 -45 -45 0 -45 0 0 -90 0 -90 45 0 45 0 0 -50 0 -50 90 0 90 0 0
-45 0 -45 -90 0 -90 0 0 45 0 45 -45 0 -45 0 0 -90 0 -90 -45 0 -45 0 0 -90 0
-90 45 0 45 0 0 -45 0 -45 45 0 45 0 0 45 0 45 45 0 45 0 0 45 0 45 45 0 45 0
0 45 0 45 45 0 45 0 0 89 0 90 48 3 47 3 0 90 0 90 -47 3 -48 3 0 90 0 89 50
0 50 0 0 -45 0 -45 45 0 45 0 0 -230 0 -230 90 0 90 0 0 45 0 45 -45 0 -45 0
0 45 0 45 45 0 45 0 0 50 0 50 45 0 45 0 0 45 0 45 -90 0 -90 0 0 45 0 45 45
0 45 0 0 45 0 45 90 0 90 0 0 45 0 45 51 0 50 0 -3 -42z m2 -1148 l0 -90 -50
0 -50 0 0 45 0 45 -45 0 -45 0 0 45 0 45 95 0 95 0 0 -90z"/>
<path d="M460 1325 l0 -45 -45 0 -45 0 0 -45 0 -45 45 0 45 0 0 -90 0 -90 45
0 45 0 0 90 0 90 45 0 45 0 0 45 0 45 -45 0 -45 0 0 45 0 45 -45 0 -45 0 0
-45z"/>
<path d="M1190 1010 l0 -90 -45 0 -45 0 0 -50 0 -50 -45 0 -45 0 0 -90 0 -90
-45 0 -45 0 0 90 0 90 -44 0 -45 0 -3 -42 -3 -43 -47 -3 -48 -3 0 -45 0 -44
-45 0 -45 0 0 -45 0 -45 45 0 45 0 0 -45 0 -45 50 0 50 0 0 -45 0 -45 45 0 45
0 0 45 0 45 -45 0 -45 0 0 45 0 45 90 0 90 0 0 45 0 45 45 0 45 0 0 90 0 90
45 0 45 0 0 50 0 50 45 0 45 0 0 45 0 45 95 0 95 0 0 45 0 45 -140 0 -140 0 0
-90z"/>
<path d="M1010 2065 l0 -45 45 0 45 0 0 -95 0 -95 45 0 45 0 0 95 0 95 45 0
45 0 0 45 0 45 -45 0 -45 0 0 -45 0 -45 -45 0 -45 0 0 45 0 45 -45 0 -45 0 0
-45z"/>
</g>
</svg>
