<?xml version="1.0" encoding="utf-8"?>
<!-- Generator: Adobe Illustrator 16.0.0, SVG Export Plug-In . SVG Version: 6.00 Build 0)  -->
<!DOCTYPE svg PUBLIC "-//W3C//DTD SVG 1.1//EN" "http://www.w3.org/Graphics/SVG/1.1/DTD/svg11.dtd">
<svg version="1.1" id="Layer_1" xmlns="http://www.w3.org/2000/svg" xmlns:xlink="http://www.w3.org/1999/xlink" x="0px" y="0px"
	 width="48px" height="48px" viewBox="0 0 48 48" enable-background="new 0 0 48 48" xml:space="preserve">
<g>
	<path d="M4.179,23.041L15.554,3.664c0.182-0.311,0.534-0.505,0.917-0.505c0.382,0,0.734,0.194,0.915,0.504l7.728,13.164
		l-1.068,0.557L17.923,6.586c-0.222-0.376-0.647-0.583-1.08-0.522c-0.432,0.061-0.786,0.375-0.896,0.798L11.72,23.988
		c-0.083,0.284-0.045,0.59,0.104,0.844c0.149,0.256,0.397,0.438,0.686,0.507c1.362,0.319,2.769,0.481,4.18,0.481h0
		c0.145,0,0.288-0.004,0.43-0.006l0.007,1.377c-0.304,0.011-0.611,0.019-0.922,0.019h-0.001c-4.098,0-8.007-0.963-11.624-2.862
		c-0.246-0.129-0.421-0.34-0.493-0.594C4.017,23.513,4.05,23.26,4.179,23.041z M18.876,22.859c0.001-0.197,0.111-0.376,0.287-0.465
		l11.946-6.227c0.137-0.069,0.296-0.074,0.438-0.015l12.084,5.853c0.011,0.004,0.019,0.012,0.029,0.018
		c0.012,0.006,0.024,0.009,0.035,0.016c0.014,0.007,0.022,0.017,0.033,0.025c0.017,0.012,0.033,0.024,0.05,0.039
		c0.019,0.018,0.035,0.036,0.052,0.057c0.013,0.016,0.026,0.031,0.037,0.049c0.015,0.022,0.025,0.046,0.037,0.07
		c0.007,0.019,0.017,0.037,0.021,0.055c0.008,0.027,0.012,0.055,0.016,0.084c0.001,0.015,0.009,0.028,0.009,0.043
		c0,0.004-0.002,0.007-0.002,0.011c0,0.005,0.002,0.009,0.002,0.014v15.472c0,0.191-0.105,0.367-0.273,0.46l-11.727,6.36
		c-0.078,0.041-0.163,0.062-0.249,0.062c-0.092,0-0.185-0.025-0.266-0.075c-0.049-0.028-0.089-0.064-0.125-0.105l0,0
		c-0.085,0-0.17-0.022-0.247-0.062l-11.878-6.221c-0.168-0.088-0.273-0.266-0.275-0.456l-0.069-14.87
		c0-0.064,0.015-0.125,0.037-0.184C18.877,22.864,18.876,22.862,18.876,22.859z M32.221,43.444l10.685-5.798V23.361l-10.685,5.971
		V43.444z M31.695,28.432l10.526-5.888l-10.859-5.336l-10.815,5.659L31.695,28.432z M25.738,8.862c0,0.189,0.074,0.369,0.209,0.503
		l1.739,1.739c0.269,0.269,0.738,0.269,1.007,0c0.134-0.134,0.207-0.312,0.207-0.503c0-0.19-0.073-0.368-0.207-0.503l-0.658-0.657
		c0.429-0.05,0.852-0.076,1.265-0.076c6.405,0,9.199,6.049,9.228,6.11c0.113,0.256,0.37,0.422,0.649,0.422
		c0.101,0,0.199-0.021,0.29-0.062c0.357-0.16,0.519-0.582,0.359-0.939c-0.031-0.07-3.214-6.949-10.524-6.949
		c-0.318,0-0.643,0.013-0.969,0.039l0.36-0.359C28.827,7.492,28.9,7.312,28.9,7.123s-0.073-0.369-0.207-0.503
		c-0.269-0.269-0.738-0.269-1.007,0l-1.739,1.739C25.814,8.493,25.738,8.672,25.738,8.862z"/>
</g>
</svg>
